<svg version="1.1" id="Layer_1" xmlns="http://www.w3.org/2000/svg" xmlns:xlink="http://www.w3.org/1999/xlink" x="0px" y="0px"
	 width="100%" viewBox="0 0 8000 8000" enable-background="new 0 0 8000 8000" xml:space="preserve">
<path fill="#FFFFFF" opacity="1.000000" stroke="none" 
	d="
M4232.000000,8004.000000 
	C2821.333252,8004.000000 1412.666626,8004.000000 4.000000,8004.000000 
	C4.000000,5337.333496 4.000000,2670.666748 4.000000,4.000001 
	C2670.666748,4.000001 5337.333496,4.000001 8004.000000,4.000000 
	C8004.000000,2670.666748 8004.000000,5337.333496 8004.000000,8004.000000 
	C6747.333496,8004.000000 5490.666504,8004.000000 4232.000000,8004.000000 
M1845.498291,3785.878418 
	C1846.791870,3802.102539 1842.678833,3818.771729 1848.213623,3834.970459 
	C1852.763428,3835.273926 1856.056763,3835.687988 1859.349609,3835.684570 
	C1979.988159,3835.562256 2100.626709,3835.402588 2221.265137,3835.228027 
	C2221.912598,3835.227051 2222.624512,3835.067139 2223.187744,3834.762451 
	C2223.753418,3834.456299 2224.171387,3833.876709 2225.768311,3832.354980 
	C2225.924561,3828.988770 2226.432129,3824.465088 2226.284424,3819.962891 
	C2225.914062,3808.647949 2225.071533,3797.348389 2224.731445,3786.032959 
	C2223.430176,3742.738770 2222.174561,3699.442383 2221.046387,3656.143311 
	C2219.345703,3590.855469 2217.831543,3525.562256 2216.108643,3460.274902 
	C2215.247070,3427.636963 2214.356689,3394.996338 2213.023682,3362.375244 
	C2210.439941,3299.137207 2207.516357,3235.912598 2204.767334,3172.681152 
	C2202.856934,3128.743164 2201.003662,3084.802734 2199.120605,3040.863525 
	C2199.006592,3038.199951 2198.852539,3035.538086 2198.724365,3032.875000 
	C2197.478516,3006.922607 2196.172852,2980.972656 2195.079590,2955.013672 
	C2194.966064,2952.317871 2193.527588,2948.695312 2198.862305,2946.265869 
	C2214.691406,2995.300049 2228.783447,3044.364502 2243.706055,3093.163086 
	C2258.699463,3142.193604 2273.337158,3191.332275 2288.139404,3240.420898 
	C2302.942139,3289.510498 2317.811768,3338.580078 2332.548828,3387.689453 
	C2347.285645,3436.797119 2361.936523,3485.930176 2376.548096,3535.075195 
	C2391.159424,3584.220215 2405.483154,3633.451660 2420.287354,3682.538330 
	C2435.054199,3731.500000 2448.335693,3780.928223 2464.088135,3828.511230 
	C2467.089600,3829.447266 2468.344238,3830.178711 2469.600342,3830.181396 
	C2537.588867,3830.329102 2605.577637,3830.423828 2673.566162,3830.484619 
	C2676.883301,3830.487549 2680.202393,3830.160645 2683.516602,3829.928711 
	C2684.165039,3829.883545 2684.843018,3829.655029 2685.418457,3829.345703 
	C2685.980469,3829.044189 2686.429199,3828.531250 2688.812256,3826.522461 
	C2694.500732,3807.542480 2700.850586,3786.585449 2707.056885,3765.585938 
	C2713.284180,3744.513672 2719.316406,3723.384033 2725.529785,3702.307861 
	C2731.743408,3681.230469 2738.074951,3660.187500 2744.355225,3639.129639 
	C2750.634766,3618.074219 2756.964111,3597.032959 2763.180908,3575.959229 
	C2769.398438,3554.882812 2775.475342,3533.765137 2781.667236,3512.681396 
	C2787.858154,3491.599365 2794.062988,3470.520752 2800.356689,3449.468994 
	C2806.651367,3428.415039 2813.094971,3407.405762 2819.415283,3386.359375 
	C2825.926270,3364.677979 2832.399414,3342.985107 2838.828613,3321.279053 
	C2845.068848,3300.210449 2851.182129,3279.104248 2857.442139,3258.041504 
	C2863.702393,3236.978271 2870.074707,3215.947998 2876.399658,3194.904053 
	C2882.724854,3173.859863 2889.088379,3152.826904 2895.368164,3131.769287 
	C2901.647949,3110.713623 2907.823242,3089.626953 2914.083740,3068.565430 
	C2920.344727,3047.501221 2926.416016,3026.376465 2933.010498,3005.416504 
	C2939.505127,2984.774902 2944.275146,2963.522949 2953.844238,2943.745361 
	C2955.016113,2950.920166 2955.306152,2957.889893 2954.968018,2964.829102 
	C2953.086426,3003.419434 2950.840088,3041.993164 2949.117920,3080.590332 
	C2946.177734,3146.486084 2943.447510,3212.392090 2940.800049,3278.300537 
	C2939.409424,3312.922363 2938.205322,3347.553955 2937.228027,3382.189697 
	C2935.498291,3443.477051 2934.046143,3504.771729 2932.399170,3566.061279 
	C2931.432617,3602.030518 2930.278076,3637.994629 2929.270996,3673.962646 
	C2927.890869,3723.255859 2926.513428,3772.549072 2925.324951,3821.847168 
	C2925.220215,3826.191406 2926.519531,3830.569336 2927.284180,3835.722656 
	C2937.808838,3835.722656 2947.109375,3835.722656 2956.409668,3835.722656 
	C3064.395996,3835.722656 3172.382324,3835.750977 3280.368652,3835.657227 
	C3287.475342,3835.651123 3294.872070,3836.942139 3302.962158,3833.241455 
	C3303.095215,3824.486816 3303.338135,3815.946045 3303.338379,3807.405273 
	C3303.356201,3261.474609 3303.354980,2715.544189 3303.354492,2169.613525 
	C3303.354492,2164.280762 3303.516357,2158.940918 3303.285889,2153.617920 
	C3303.120605,2149.806885 3302.425293,2146.018799 3302.053223,2142.939209 
	C3299.547607,2141.863525 3298.400146,2141.060303 3297.171143,2140.907227 
	C3294.539307,2140.578613 3291.865479,2140.469971 3289.209229,2140.472656 
	C3140.575439,2140.629395 2991.941895,2140.806152 2843.308105,2141.001221 
	C2842.659424,2141.002197 2841.953125,2141.178711 2841.378906,2141.476074 
	C2840.804688,2141.773193 2840.362793,2142.325439 2837.868896,2144.522705 
	C2834.892090,2155.780762 2831.347412,2169.195312 2827.797852,2182.608643 
	C2824.221191,2196.124023 2820.582520,2209.623535 2817.075684,2223.156982 
	C2813.735596,2236.047363 2810.588867,2248.987793 2807.250000,2261.878418 
	C2803.743408,2275.415039 2800.052246,2288.903564 2796.548096,2302.440674 
	C2793.044678,2315.974121 2789.712402,2329.551758 2786.232178,2343.091309 
	C2782.751465,2356.633057 2779.193359,2370.155273 2775.646240,2383.679932 
	C2772.267822,2396.561279 2768.794434,2409.417969 2765.482910,2422.316406 
	C2762.006348,2435.856934 2758.759033,2449.457031 2755.251465,2462.989502 
	C2751.742920,2476.525879 2747.973145,2489.994629 2744.434326,2503.523438 
	C2740.896240,2517.049561 2737.528564,2530.620361 2734.038086,2544.158936 
	C2730.713623,2557.051758 2727.342529,2569.932373 2723.962646,2582.810547 
	C2720.413086,2596.335205 2716.754883,2609.831543 2713.280273,2623.375488 
	C2709.805908,2636.918213 2706.590332,2650.527832 2703.096191,2664.065430 
	C2699.601807,2677.603516 2695.850830,2691.075195 2692.307617,2704.600830 
	C2688.764404,2718.127441 2685.243896,2731.661377 2681.889160,2745.235352 
	C2678.694824,2758.159668 2675.687988,2771.131104 2672.670898,2784.098389 
	C2669.502441,2797.716309 2666.476074,2811.367432 2663.283447,2824.979736 
	C2660.090820,2838.589355 2656.727783,2852.159424 2653.515137,2865.764648 
	C2650.301758,2879.372803 2647.176270,2893.001465 2644.024170,2906.624023 
	C2641.022705,2919.596191 2638.089844,2932.584229 2635.029053,2945.542236 
	C2631.815186,2959.147705 2628.426025,2972.712402 2625.221924,2986.320068 
	C2622.017090,2999.929443 2618.975830,3013.576904 2615.807373,3027.194824 
	C2612.639160,3040.811768 2609.420898,3054.416992 2606.191650,3068.019775 
	C2603.116699,3080.973389 2599.946533,3093.905029 2596.914307,3106.868652 
	C2593.729736,3120.482422 2591.204590,3134.278320 2587.382324,3147.707275 
	C2583.704346,3160.629639 2583.559814,3174.715820 2575.024170,3189.475098 
	C2565.587891,3158.120361 2559.741455,3128.988525 2552.586914,3100.211914 
	C2545.358643,3071.139648 2538.656738,3041.937012 2531.665527,3012.805664 
	C2524.673828,2983.672119 2517.626465,2954.552002 2510.572266,2925.433594 
	C2503.518555,2896.317139 2496.395752,2867.217529 2489.358154,2838.097412 
	C2482.320068,2808.975830 2475.454590,2779.812256 2468.320801,2750.714355 
	C2461.186768,2721.614502 2453.897461,2692.551758 2446.522217,2663.511963 
	C2439.147461,2634.475098 2431.534424,2605.499023 2424.114502,2576.473389 
	C2416.694580,2547.448486 2409.400146,2518.391602 2402.020752,2489.356201 
	C2394.640137,2460.316162 2387.235107,2431.282715 2379.817627,2402.252197 
	C2372.401611,2373.227539 2364.910889,2344.222168 2357.537598,2315.186768 
	C2350.162598,2286.144775 2343.282959,2256.970947 2335.465576,2228.049316 
	C2327.690186,2199.282715 2321.823975,2169.962891 2312.737305,2142.520264 
	C2309.951172,2141.554932 2308.713623,2140.751221 2307.475586,2140.750000 
	C2160.829834,2140.611816 2014.184204,2140.527588 1867.538574,2140.472412 
	C1862.219238,2140.470459 1856.899170,2140.763184 1851.581543,2140.973145 
	C1850.941406,2140.998291 1850.276489,2141.292969 1849.692749,2141.596680 
	C1849.138428,2141.884766 1848.675293,2142.348389 1848.170044,2142.733887 
	C1847.549316,2143.888672 1846.385376,2145.043457 1846.384644,2146.198486 
	C1846.037598,2691.438477 1845.769409,3236.678467 1845.498291,3785.878418 
M5851.845703,4122.145508 
	C5852.944336,4144.106934 5854.121094,4166.064941 5855.126953,4188.030273 
	C5857.809570,4246.604980 5860.434570,4305.183105 5863.053711,4363.760254 
	C5865.791992,4425.002930 5868.594727,4486.242188 5871.185059,4547.490723 
	C5873.212402,4595.430664 5874.958008,4643.382324 5876.829102,4691.329102 
	C5876.932617,4693.993652 5877.015137,4696.659180 5877.135742,4699.322754 
	C5879.369141,4748.576660 5881.796875,4797.822266 5883.788086,4847.085938 
	C5885.779785,4896.361816 5887.318848,4945.655762 5889.114746,4994.939941 
	C5889.284668,4999.594727 5889.970215,5004.228027 5890.253906,5008.881348 
	C5891.619141,5031.272461 5892.523926,5053.670898 5891.653320,5079.238770 
	C5887.076660,5072.342285 5886.141602,5067.161621 5884.861816,5062.317871 
	C5880.438477,5045.583008 5876.345703,5028.759766 5872.141602,5011.966797 
	C5833.977051,4859.525879 5794.619141,4707.414551 5751.826660,4556.181152 
	C5695.079590,4355.633789 5639.583008,4154.732422 5583.490234,3953.999512 
	C5581.746582,3947.760254 5579.353516,3941.702637 5576.990234,3934.758789 
	C5569.246582,3934.758789 5562.640625,3934.758301 5556.034180,3934.758301 
	C5495.368652,3934.758301 5434.703125,3934.758545 5374.037598,3934.759033 
	C5335.371582,3934.759277 5296.705566,3934.682617 5258.040527,3934.846191 
	C5252.305176,3934.870605 5246.040527,3933.173828 5239.887207,3938.769531 
	C5239.779297,3946.461182 5239.554199,3955.032471 5239.553711,3963.604004 
	C5239.537598,4695.590332 5239.539062,5427.576660 5239.540039,6159.562988 
	C5239.540527,6164.895996 5239.364746,6170.238770 5239.626465,6175.559570 
	C5239.812012,6179.343262 5240.593750,6183.097656 5241.230469,6187.746582 
	C5249.530762,6187.952637 5256.754883,6188.284180 5263.979004,6188.287598 
	C5344.644043,6188.324219 5425.309570,6188.310547 5505.974609,6188.310059 
	C5543.973633,6188.309570 5581.973145,6188.367676 5619.971680,6188.231934 
	C5625.026367,6188.213867 5630.078125,6187.203613 5635.937500,6186.564941 
	C5635.937500,6180.574219 5636.120117,6175.971191 5635.905273,6171.387207 
	C5634.999023,6152.088379 5633.834473,6132.800781 5633.018555,6113.498535 
	C5630.175293,6046.255859 5627.453613,5979.008789 5624.651855,5911.764648 
	C5623.459473,5883.137207 5622.143555,5854.515137 5620.952637,5825.887695 
	C5618.127441,5757.977051 5615.365234,5690.064453 5612.533691,5622.154297 
	C5611.422852,5595.525391 5610.137207,5568.904785 5609.029297,5542.275879 
	C5606.204102,5474.365234 5603.330078,5406.456543 5600.675781,5338.539062 
	C5598.645996,5286.596191 5596.923828,5234.640625 5595.060547,5182.690918 
	C5594.964844,5180.026367 5594.804688,5177.364258 5594.701172,5174.700195 
	C5593.482422,5143.405273 5592.225586,5112.112305 5591.154785,5080.812500 
	C5591.086426,5078.817383 5589.879883,5075.599609 5595.046875,5074.560547 
	C5596.790527,5080.720215 5598.675781,5086.889648 5600.282715,5093.130371 
	C5630.331055,5209.840332 5659.464355,5326.782227 5692.131348,5442.813477 
	C5727.499023,5568.439941 5761.916016,5694.333496 5796.851074,5820.081543 
	C5829.647461,5938.133789 5862.569824,6056.150391 5895.490234,6174.167969 
	C5896.713379,6178.553711 5898.491699,6182.784668 5900.261719,6187.798340 
	C5907.416016,6187.978027 5914.009766,6188.283203 5920.603516,6188.288086 
	C5973.936035,6188.327148 6027.268066,6188.310059 6080.600586,6188.310059 
	C6127.933105,6188.309570 6175.265625,6188.380371 6222.597656,6188.217285 
	C6228.319336,6188.197266 6234.689453,6190.144043 6240.460938,6183.953613 
	C6240.460938,6176.257812 6240.460938,6167.622070 6240.460938,6158.986328 
	C6240.460938,5427.000000 6240.460938,4695.013672 6240.459961,3963.027588 
	C6240.459961,3957.694336 6240.719238,3952.342285 6240.349121,3947.034180 
	C6240.085449,3943.255371 6238.967285,3939.536133 6238.050293,3934.875732 
	C6109.294922,3934.875732 5981.344238,3934.867676 5853.393555,3934.935303 
	C5850.893066,3934.936768 5848.392578,3935.826660 5845.350586,3936.405029 
	C5842.997559,3944.022461 5843.973145,3951.338867 5844.295898,3958.505859 
	C5846.694824,4011.756104 5849.238770,4064.999756 5851.845703,4122.145508 
M5347.713867,1625.750488 
	C5347.462402,1611.355225 5354.362793,1597.324219 5350.538574,1581.714600 
	C5345.432129,1581.388184 5340.887207,1580.845459 5336.342285,1580.843994 
	C5202.344238,1580.799927 5068.346680,1580.794556 4934.348633,1580.874878 
	C4929.866699,1580.877563 4925.386230,1581.829468 4920.047852,1582.436279 
	C4918.889160,1595.122681 4917.459473,1606.990112 4916.781738,1618.900269 
	C4914.775391,1654.159546 4913.124023,1689.438843 4911.219727,1724.704102 
	C4909.926758,1748.654541 4908.540527,1772.600708 4907.025879,1796.538086 
	C4903.660645,1849.723999 4900.034180,1902.893555 4896.816895,1956.088135 
	C4894.725586,1990.673950 4893.228027,2025.295166 4891.347656,2059.894043 
	C4890.009766,2084.510742 4888.564453,2109.122314 4887.019043,2133.726562 
	C4883.636230,2187.582520 4880.006836,2241.423096 4876.776855,2295.287842 
	C4874.663574,2330.540039 4873.135742,2365.827148 4871.228516,2401.092041 
	C4869.933594,2425.041992 4868.520020,2448.986572 4867.012207,2472.924072 
	C4863.620117,2526.776611 4859.981445,2580.614014 4856.744629,2634.475830 
	C4854.625488,2669.726807 4853.090820,2705.012695 4851.183105,2740.276855 
	C4849.887695,2764.226318 4848.498535,2788.171875 4846.978516,2812.107910 
	C4843.643066,2864.629150 4840.033203,2917.133057 4836.855469,2969.663574 
	C4834.722656,3004.915283 4833.142578,3040.200195 4831.303223,3075.469727 
	C4831.130371,3078.796631 4830.905762,3082.122070 4830.643555,3085.443115 
	C4828.385254,3113.998047 4826.083496,3142.549805 4823.854980,3171.106934 
	C4822.196289,3192.360107 4820.692383,3213.625488 4819.005371,3234.876465 
	C4815.263672,3282.021484 4811.503906,3329.164795 4807.632324,3376.299316 
	C4806.378418,3391.568604 4804.761230,3406.807861 4803.267090,3422.056885 
	C4803.206543,3422.677002 4802.738281,3423.276123 4802.374023,3423.829102 
	C4802.312500,3423.923096 4801.815430,3423.730469 4800.781250,3423.520264 
	C4797.999023,3391.254639 4794.999512,3358.791260 4792.446777,3326.292480 
	C4789.107422,3283.788330 4786.162109,3241.252930 4782.964844,3198.737549 
	C4781.616211,3180.802002 4780.028320,3162.885010 4778.597168,3144.955566 
	C4776.477051,3118.396729 4774.056641,3091.855713 4772.387695,3065.268066 
	C4770.260254,3031.353027 4768.813477,2997.395996 4766.959473,2963.463135 
	C4765.686523,2940.179443 4764.316406,2916.899658 4762.814941,2893.629639 
	C4760.799316,2862.386230 4758.398438,2831.166504 4756.560547,2799.913086 
	C4754.488281,2764.657471 4752.926758,2729.372559 4751.012207,2694.107178 
	C4749.675293,2669.491211 4748.195312,2644.882324 4746.639648,2620.279053 
	C4744.580566,2587.701416 4742.216797,2555.142090 4740.291504,2522.556885 
	C4738.325684,2489.299072 4736.788086,2456.016113 4734.957520,2422.749756 
	C4733.676758,2399.466553 4732.291504,2376.188721 4730.823242,2352.916748 
	C4728.684082,2319.010010 4726.270508,2285.120361 4724.267578,2251.206055 
	C4722.303223,2217.947266 4720.765137,2184.663574 4718.928223,2151.396973 
	C4717.605469,2127.447754 4716.172852,2103.504150 4714.654785,2079.566895 
	C4712.588379,2046.990356 4710.221680,2014.432129 4708.303223,1981.847412 
	C4706.306641,1947.922729 4704.747070,1913.972412 4702.887207,1880.039429 
	C4701.647949,1857.420654 4700.289062,1834.807739 4698.855469,1812.200562 
	C4696.704590,1778.295776 4694.278320,1744.407715 4692.270996,1710.494751 
	C4690.303223,1677.237183 4688.835449,1643.950195 4686.875488,1610.692139 
	C4686.330566,1601.447266 4684.817871,1592.259399 4683.663086,1582.304810 
	C4678.484375,1581.760010 4673.974121,1580.942383 4669.450684,1580.859619 
	C4535.452148,1578.409546 4272.045898,1579.708496 4253.662109,1582.887695 
	C4250.370605,1589.174438 4252.673340,1595.767822 4253.270508,1602.213257 
	C4253.945801,1609.498535 4255.269531,1616.721313 4256.178223,1623.987793 
	C4260.723633,1660.332642 4265.187988,1696.687866 4269.753418,1733.030151 
	C4274.484375,1770.692017 4279.356445,1808.336304 4284.061035,1846.001465 
	C4288.600098,1882.347778 4292.925781,1918.720703 4297.490234,1955.063843 
	C4302.220215,1992.724609 4307.195312,2030.354492 4311.929688,2068.014893 
	C4316.498047,2104.357910 4320.841797,2140.729004 4325.381348,2177.075928 
	C4330.250000,2216.059326 4335.265625,2255.024658 4340.151855,2294.005859 
	C4344.625000,2329.687256 4348.980957,2365.382812 4353.446777,2401.065186 
	C4358.325684,2440.046387 4363.298828,2479.016113 4368.180664,2517.997070 
	C4372.649902,2553.678955 4377.009277,2589.374756 4381.493652,2625.054443 
	C4386.309570,2663.374268 4391.258789,2701.677002 4396.067871,2739.997803 
	C4400.629395,2776.339844 4405.045410,2812.699951 4409.598633,2849.043213 
	C4414.399414,2887.363770 4419.326172,2925.668701 4424.126465,2963.989258 
	C4428.678711,3000.332520 4433.100586,3036.692383 4437.651367,3073.035889 
	C4442.450195,3111.358887 4447.365234,3149.667725 4452.169922,3187.989990 
	C4456.726562,3224.333496 4461.157227,3260.693115 4465.735352,3297.033936 
	C4470.396484,3334.032959 4475.253906,3371.007080 4479.872559,3408.011475 
	C4484.491699,3445.019043 4488.807129,3482.065186 4493.462891,3519.068115 
	C4499.448242,3566.639893 4505.744629,3614.172607 4511.711914,3661.746582 
	C4517.596680,3708.663818 4523.179199,3755.618896 4529.031738,3802.540527 
	C4530.333008,3812.977783 4532.208008,3823.343506 4533.981445,3834.792969 
	C4541.320801,3835.128174 4547.839355,3835.666504 4554.358887,3835.683594 
	C4587.691895,3835.770996 4621.024414,3835.724121 4654.357422,3835.724121 
	C4785.688965,3835.724121 4917.020020,3835.751465 5048.351562,3835.649414 
	C5055.488770,3835.644043 5062.939453,3837.134521 5069.285645,3833.916016 
	C5070.213379,3831.946289 5071.116211,3830.813965 5071.272461,3829.586426 
	C5076.897949,3785.324951 5082.475586,3741.057129 5088.010742,3696.784424 
	C5092.472656,3661.099365 5096.833984,3625.401611 5101.306152,3589.718018 
	C5106.191406,3550.735352 5111.187012,3511.766113 5116.075684,3472.783691 
	C5120.550293,3437.101074 5124.918945,3401.404785 5129.385742,3365.720947 
	C5134.264160,3326.737061 5139.222168,3287.763184 5144.106934,3248.780029 
	C5148.578125,3213.097412 5152.961914,3177.404297 5157.445801,3141.723145 
	C5162.260254,3103.403809 5167.188477,3065.098145 5171.990234,3026.776855 
	C5176.544434,2990.434814 5180.958496,2954.075439 5185.508301,2917.732666 
	C5190.305176,2879.411133 5195.212891,2841.103027 5200.027344,2802.783447 
	C5203.265137,2777.014160 5206.385742,2751.229980 5209.627441,2725.461426 
	C5214.365723,2687.803223 5219.212891,2650.158691 5223.920898,2612.497070 
	C5227.143066,2586.725830 5230.113770,2560.922852 5233.362793,2535.155029 
	C5238.110840,2497.500488 5243.078125,2459.873291 5247.820801,2422.218018 
	C5252.397949,2385.877930 5256.767578,2349.511963 5261.305664,2313.166992 
	C5266.174316,2274.179688 5271.158203,2235.206543 5276.044434,2196.221436 
	C5280.516113,2160.537598 5284.887207,2124.841064 5289.368164,2089.158447 
	C5294.180176,2050.837402 5299.111328,2012.531250 5303.913574,1974.208862 
	C5308.467773,1937.864746 5312.859863,1901.500244 5317.437988,1865.158936 
	C5322.099121,1828.161133 5326.931641,1791.184937 5331.631836,1754.192017 
	C5336.920410,1712.572998 5342.145020,1670.945801 5347.713867,1625.750488 
M1872.210083,6077.658203 
	C1896.350342,6113.018555 1927.545166,6140.450684 1965.061157,6160.968262 
	C1993.906860,6176.744141 2024.518066,6187.751465 2056.259033,6195.831543 
	C2103.593018,6207.880859 2151.901611,6213.361328 2200.537598,6215.336914 
	C2233.818604,6216.688965 2267.185547,6216.196289 2300.512451,6216.069336 
	C2345.243896,6215.898438 2389.656982,6211.683594 2433.674805,6203.773438 
	C2479.166504,6195.597656 2523.064941,6182.509277 2563.710938,6159.890137 
	C2611.014893,6133.565430 2647.399658,6096.635742 2672.333252,6048.457520 
	C2684.334229,6025.268066 2693.377930,6001.000977 2700.134521,5975.826660 
	C2712.987793,5927.935059 2718.914062,5878.993164 2719.484863,5829.613770 
	C2720.432373,5747.629883 2719.923340,5665.629395 2719.941406,5583.635742 
	C2719.942383,5579.796387 2719.103760,5575.957031 2718.556641,5571.265137 
	C2712.747314,5570.467285 2707.588623,5569.334961 2702.390625,5569.109375 
	C2635.818848,5566.225098 2569.240967,5563.488770 2502.666016,5560.679199 
	C2447.412842,5558.346680 2392.164307,5555.912598 2336.905273,5553.734375 
	C2333.276855,5553.590820 2329.577881,5555.237305 2324.992676,5556.255859 
	C2324.992676,5564.483887 2324.992920,5571.758789 2324.992920,5579.033691 
	C2324.991699,5659.027832 2325.003662,5739.022461 2324.967773,5819.016602 
	C2324.964355,5827.012207 2325.320557,5835.090332 2324.327637,5842.980957 
	C2323.339844,5850.831543 2321.747070,5858.845703 2318.845459,5866.163574 
	C2313.364746,5879.986816 2303.010742,5888.912598 2288.258301,5892.369629 
	C2273.108643,5895.920410 2257.993408,5896.434082 2242.754150,5892.772461 
	C2224.255615,5888.327637 2212.162598,5877.099609 2206.887451,5858.921875 
	C2205.050537,5852.590820 2203.891357,5845.929199 2203.471191,5839.352051 
	C2202.834961,5829.388184 2203.020996,5819.365723 2203.020752,5809.368164 
	C2203.005371,5311.403809 2203.005615,4813.439941 2203.016602,4315.475586 
	C2203.016846,4305.477051 2203.013184,4295.475098 2203.290283,4285.481934 
	C2203.437744,4280.165527 2203.568848,4274.720703 2204.770020,4269.582520 
	C2209.510742,4249.305176 2220.328857,4234.133301 2241.878174,4229.617188 
	C2254.335449,4227.006836 2267.075684,4227.000000 2279.584229,4229.761230 
	C2295.118896,4233.190430 2305.799072,4242.795410 2311.154297,4257.551758 
	C2313.844482,4264.964844 2315.215576,4272.991211 2316.162354,4280.863281 
	C2317.033203,4288.102051 2316.625732,4295.505371 2316.627686,4302.836426 
	C2316.649658,4383.497070 2316.569580,4464.158203 2316.769287,4544.818359 
	C2316.786621,4551.799316 2314.346924,4559.450195 2320.281250,4566.629883 
	C2330.575684,4566.011719 2341.143311,4565.164062 2351.727539,4564.785156 
	C2375.043213,4563.950195 2398.378662,4563.607910 2421.685547,4562.599121 
	C2466.282715,4560.668945 2510.857422,4558.222656 2555.456543,4556.346191 
	C2602.728760,4554.356445 2650.018311,4552.781250 2697.300293,4551.021484 
	C2699.298584,4550.947266 2701.372070,4551.142090 2703.276367,4550.669922 
	C2706.939209,4549.762207 2710.505615,4548.465332 2714.070801,4547.342773 
	C2714.441162,4543.705078 2714.965088,4541.077148 2714.938232,4538.454590 
	C2713.998535,4446.492676 2717.412109,4354.493164 2712.350586,4262.563477 
	C2709.961426,4219.166504 2703.741455,4176.391602 2691.454346,4134.701172 
	C2675.911377,4081.963379 2650.301025,4035.127930 2608.755615,3997.952148 
	C2576.384766,3968.986084 2538.710693,3949.677979 2497.789551,3936.179932 
	C2446.164062,3919.150879 2392.786133,3911.545654 2338.803955,3908.567627 
	C2304.920166,3906.698486 2270.947754,3905.924561 2236.931152,3906.792236 
	C2196.925049,3907.812988 2157.076904,3909.626221 2117.440918,3915.596191 
	C2079.112793,3921.369385 2041.603638,3930.018066 2005.442871,3944.177979 
	C1926.669434,3975.024170 1871.255615,4029.314697 1840.764648,4108.466309 
	C1825.094727,4149.143555 1817.067993,4191.602051 1812.229126,4234.772461 
	C1808.062134,4271.948730 1807.976196,4309.258789 1807.977783,4346.587891 
	C1807.998047,4823.886719 1807.989746,5301.185547 1807.998169,5778.484375 
	C1807.998413,5791.149902 1808.108032,5803.815430 1808.162598,5816.480957 
	C1808.346802,5859.228516 1812.357544,5901.643066 1820.259399,5943.624512 
	C1829.080811,5990.490234 1844.063721,6035.118164 1872.210083,6077.658203 
M5894.000000,3835.721191 
	C5942.655273,3835.721436 5991.311035,3835.721436 6039.966309,3835.721436 
	C6112.616699,3835.721436 6185.267578,3835.782959 6257.917969,3835.624512 
	C6265.024902,3835.608887 6272.528320,3837.431152 6280.208496,3832.925781 
	C6280.463379,3827.229492 6280.932617,3821.339355 6280.953613,3815.447754 
	C6281.040527,3791.453613 6280.989746,3767.458496 6280.989746,3743.463867 
	C6280.989746,3677.478516 6281.056641,3611.492676 6280.892578,3545.507812 
	C6280.874512,3538.437256 6282.733887,3530.908447 6277.780273,3523.201172 
	C6270.116211,3523.055908 6262.223145,3522.777832 6254.330078,3522.775879 
	C6133.023438,3522.748291 6011.716797,3522.794922 5890.410156,3522.658936 
	C5883.296875,3522.651123 5875.729492,3524.658691 5867.703613,3519.144775 
	C5867.703613,3512.018555 5867.704102,3504.081299 5867.704102,3496.144043 
	C5867.704102,3282.857666 5867.703125,3069.571533 5867.704590,2856.285156 
	C5867.704590,2850.953125 5867.424316,2845.598389 5867.828613,2840.296387 
	C5868.111328,2836.586670 5869.340820,2832.949219 5870.323242,2828.479492 
	C5877.252930,2828.479492 5883.203125,2828.479492 5889.153320,2828.479492 
	C5909.815430,2828.479248 5930.477539,2828.479004 5951.139648,2828.479004 
	C6030.455566,2828.478760 6109.771484,2828.521729 6189.087402,2828.406006 
	C6196.162598,2828.395508 6203.588379,2829.832275 6210.962891,2825.999023 
	C6211.226074,2821.650879 6211.627930,2817.755859 6211.666504,2813.857178 
	C6211.764648,2803.860352 6211.703613,2793.861816 6211.703613,2783.864014 
	C6211.703613,2701.882080 6211.771973,2619.899902 6211.581543,2537.918457 
	C6211.565430,2530.888428 6213.889648,2523.255615 6207.944336,2515.683838 
	C6201.280273,2515.683838 6194.000977,2515.683838 6186.721680,2515.683838 
	C6088.076660,2515.683838 5989.432129,2515.722656 5890.787109,2515.601807 
	C5883.675781,2515.593262 5876.232422,2517.140625 5868.160156,2513.128418 
	C5868.007812,2505.275146 5867.724121,2497.403320 5867.723145,2489.531250 
	C5867.698242,2300.239746 5867.703125,2110.948242 5867.704590,1921.656616 
	C5867.704590,1916.990967 5867.477539,1912.307983 5867.808105,1907.665283 
	C5868.078125,1903.882446 5869.024902,1900.147827 5869.876953,1895.194214 
	C5877.971680,1895.194214 5885.223633,1895.194214 5892.475586,1895.194214 
	C6009.783203,1895.194214 6127.090332,1895.222168 6244.397949,1895.125977 
	C6251.534180,1895.120117 6258.945801,1896.464966 6266.639160,1893.024902 
	C6267.007324,1888.230225 6267.613281,1883.712524 6267.653320,1879.189819 
	C6267.781738,1864.527466 6267.703613,1849.863403 6267.703613,1835.199951 
	C6267.703613,1757.883667 6267.756836,1680.567261 6267.614746,1603.251221 
	C6267.601562,1596.205566 6269.387695,1588.700806 6264.356934,1580.805908 
	C6256.647461,1580.805908 6248.742676,1580.805786 6240.837891,1580.805786 
	C5993.559082,1580.805786 5746.280273,1580.805664 5499.001465,1580.806641 
	C5493.669434,1580.806763 5488.314941,1580.527100 5483.012207,1580.926392 
	C5479.296875,1581.206055 5475.651367,1582.420654 5470.780762,1583.476440 
	C5470.780762,1592.902954 5470.780762,1601.501099 5470.780762,1610.099365 
	C5470.780762,2342.604248 5470.780762,3075.109375 5470.782227,3807.614258 
	C5470.782227,3812.946289 5470.524414,3818.298340 5470.903809,3823.603760 
	C5471.168945,3827.316162 5472.316895,3830.965576 5473.291016,3835.721191 
	C5612.901367,3835.721191 5751.450684,3835.721191 5894.000000,3835.721191 
M3646.000000,5875.522461 
	C3611.340088,5875.521484 3576.679932,5875.588867 3542.020508,5875.443848 
	C3536.958984,5875.422363 3531.901855,5874.388672 3526.801270,5873.818848 
	C3523.931885,5864.060547 3525.035400,5855.373535 3525.034668,5846.832031 
	C3524.981445,5220.291992 3524.986572,4593.751465 3524.985352,3967.211182 
	C3524.985352,3960.545898 3525.210205,3953.868408 3524.868652,3947.220215 
	C3524.675537,3943.455566 3523.541504,3939.739258 3522.754395,3935.596680 
	C3516.545410,3935.285889 3511.288818,3934.795166 3506.032227,3934.793457 
	C3386.722900,3934.749756 3267.413818,3934.759521 3148.104492,3934.760986 
	C3145.438477,3934.760986 3142.730713,3934.489746 3140.115967,3934.862549 
	C3136.412109,3935.390869 3132.776611,3936.400146 3128.152100,3937.413818 
	C3128.152100,3946.359619 3128.152344,3954.283691 3128.152344,3962.207764 
	C3128.152344,4694.726562 3128.152100,5427.245605 3128.152588,6159.764648 
	C3128.152588,6165.096680 3127.936523,6170.442383 3128.246582,6175.756836 
	C3128.467529,6179.540039 3129.402832,6183.281738 3130.227295,6188.310547 
	C3138.992676,6188.310547 3146.908447,6188.311035 3154.824219,6188.311035 
	C3402.107666,6188.311035 3649.391113,6188.310547 3896.674561,6188.309570 
	C3901.340332,6188.309082 3906.019775,6188.518066 3910.667236,6188.223633 
	C3914.416992,6187.986328 3918.127686,6187.134277 3922.509521,6186.453613 
	C3922.760010,6178.670898 3923.136475,6172.104492 3923.153564,6165.537598 
	C3923.223145,6138.876465 3923.182129,6112.214844 3923.182129,6085.553711 
	C3923.181885,6022.232910 3923.241943,5958.912598 3923.087646,5895.591797 
	C3923.072021,5889.229004 3925.177246,5882.254883 3919.001465,5875.521973 
	C3829.866455,5875.521973 3739.933350,5875.521973 3646.000000,5875.522461 
M3833.980713,1556.124878 
	C3794.586182,1555.419678 3755.382568,1557.777588 3716.494385,1564.175415 
	C3682.791016,1569.720337 3650.249756,1578.973389 3620.107422,1595.630493 
	C3586.301514,1614.312012 3561.304199,1641.217407 3544.974854,1676.065552 
	C3534.166748,1699.130493 3527.940186,1723.587891 3523.830811,1748.714966 
	C3519.504883,1775.165405 3519.039062,1801.774902 3519.033203,1828.432617 
	C3518.991211,2025.745605 3518.992432,2223.058594 3519.044678,2420.371582 
	C3519.048584,2434.365967 3519.340576,2448.369385 3519.896240,2462.352783 
	C3520.958252,2489.083008 3525.085205,2515.413330 3532.544678,2541.071777 
	C3546.493164,2589.051758 3572.991943,2627.672852 3617.591553,2652.372070 
	C3636.354248,2662.762695 3656.243896,2670.224854 3676.888672,2675.861084 
	C3710.494141,2685.036377 3744.966309,2688.986328 3779.524902,2690.759766 
	C3834.823975,2693.597656 3890.147461,2692.908691 3944.971436,2683.632568 
	C3973.961914,2678.727539 4002.164307,2671.022217 4028.668457,2657.813721 
	C4067.867432,2638.279297 4096.115723,2608.512939 4113.122070,2568.146729 
	C4122.750977,2545.292969 4128.302734,2521.371826 4132.016113,2496.907227 
	C4136.234863,2469.109619 4136.459473,2441.147217 4136.460449,2413.153076 
	C4136.468262,2219.839600 4136.475098,2026.526245 4136.442383,1833.212891 
	C4136.439941,1819.882690 4136.381836,1806.542725 4135.885742,1793.224487 
	C4134.815430,1764.508911 4130.849121,1736.157349 4123.230469,1708.440552 
	C4105.703125,1644.673584 4066.067383,1601.165894 4003.323242,1579.458008 
	C3990.141846,1574.897705 3976.644531,1570.993164 3963.025635,1568.002441 
	C3921.854492,1558.960693 3880.045898,1555.910400 3833.980713,1556.124878 
M4686.696777,3979.214600 
	C4667.327148,3963.545654 4645.632324,3952.115723 4622.324707,3943.496338 
	C4591.443848,3932.076172 4559.446777,3925.718506 4526.712891,3924.313721 
	C4477.408203,3922.197998 4428.058594,3922.540283 4378.979492,3928.573975 
	C4345.216797,3932.724365 4311.940918,3939.280518 4280.004883,3951.629639 
	C4219.928711,3974.860107 4180.955566,4017.057129 4163.260742,4079.192871 
	C4154.063965,4111.485352 4149.836914,4144.464355 4148.852539,4177.773438 
	C4147.769531,4214.407227 4148.361328,4251.092773 4148.383301,4287.755371 
	C4148.385254,4291.532715 4149.477539,4295.309082 4149.982422,4298.559570 
	C4152.355957,4299.354980 4153.592773,4300.130371 4154.831055,4300.132812 
	C4237.486328,4300.289551 4320.141113,4300.391602 4402.796387,4300.455566 
	C4406.779785,4300.458496 4410.763672,4300.094238 4414.745117,4299.861328 
	C4415.400391,4299.823242 4416.121582,4299.712891 4416.670898,4299.393555 
	C4417.221680,4299.073730 4417.594727,4298.449219 4419.246094,4296.651855 
	C4419.454102,4292.198730 4419.938965,4286.334961 4419.963379,4280.469727 
	C4420.061523,4257.138184 4419.745605,4233.801270 4420.175781,4210.477539 
	C4420.320801,4202.589355 4421.687012,4194.611328 4423.448242,4186.892090 
	C4425.987305,4175.756348 4434.062500,4170.246582 4444.990723,4169.177734 
	C4451.598633,4168.531738 4458.310547,4168.854980 4464.974609,4168.892090 
	C4498.605469,4169.079590 4509.242676,4186.263184 4508.922852,4212.885254 
	C4508.410645,4255.542969 4508.847656,4298.210449 4508.726074,4340.874023 
	C4508.713379,4345.370605 4507.650879,4349.864746 4507.063965,4354.451172 
	C4483.190430,4363.322754 4460.093750,4371.901855 4437.000488,4380.488281 
	C4372.074707,4404.629883 4307.223633,4428.975098 4242.195801,4452.838867 
	C4206.617676,4465.895020 4180.739258,4489.480957 4163.618164,4522.898438 
	C4159.079102,4531.757812 4155.281738,4541.067871 4151.929199,4550.451660 
	C4138.562988,4587.862305 4133.768555,4626.864258 4132.419922,4666.240234 
	C4131.348145,4697.538086 4131.930176,4728.893555 4131.868652,4760.223633 
	C4131.822754,4783.549316 4132.470215,4806.783203 4135.358398,4830.034668 
	C4139.074707,4859.961914 4145.286621,4889.181152 4156.274414,4917.214355 
	C4182.777344,4984.831055 4229.683594,5030.660645 4300.794434,5049.352539 
	C4317.450684,5053.730957 4334.735840,5056.422852 4351.905273,5057.987305 
	C4383.842285,5060.896973 4415.914551,5060.409180 4447.533203,5054.565430 
	C4492.094727,5046.329102 4530.412598,5026.090332 4561.335938,4992.524414 
	C4565.213867,4988.315918 4569.452637,4984.439941 4574.360352,4979.582031 
	C4587.807617,5001.317383 4600.363770,5021.612793 4613.194824,5042.352051 
	C4664.580566,5042.352051 4715.179688,5042.379395 4765.778320,5042.270508 
	C4768.286621,5042.265137 4770.793457,5041.075195 4773.463867,5040.395020 
	C4776.635254,5032.926758 4775.288086,5025.526855 4775.290039,5018.374512 
	C4775.373047,4747.061523 4775.336914,4475.749023 4775.398438,4204.436035 
	C4775.404785,4176.354004 4773.019531,4148.475586 4767.453613,4121.019043 
	C4756.306641,4066.032227 4733.337891,4017.414062 4686.696777,3979.214600 
M4179.210449,2958.000000 
	C4179.049316,2926.039307 4178.905762,2894.078125 4178.656250,2862.118164 
	C4178.646973,2860.957764 4177.598145,2859.805664 4176.471191,2857.497070 
	C4169.534668,2855.229736 4161.541016,2856.310303 4153.735840,2856.307861 
	C3939.250732,2856.244141 3724.765625,2856.257080 3510.280518,2856.258301 
	C3505.617920,2856.258301 3500.924316,2855.947754 3496.302246,2856.385254 
	C3492.590576,2856.736572 3488.965088,2858.003174 3485.802246,2858.746094 
	C3485.292969,2861.275146 3484.802246,2862.579102 3484.801025,2863.883545 
	C3484.736572,2924.497803 3484.677490,2985.112305 3484.797119,3045.726318 
	C3484.802979,3048.749268 3486.400146,3051.768799 3487.478516,3055.574707 
	C3495.498291,3055.574707 3502.792969,3055.574707 3510.087402,3055.574707 
	C3724.572510,3055.574707 3939.057373,3055.574951 4153.542480,3055.573730 
	C4158.205078,3055.573730 4162.899414,3055.887939 4167.520996,3055.446289 
	C4171.230469,3055.091553 4174.852051,3053.812500 4179.208984,3052.778076 
	C4179.208984,3021.895752 4179.208984,2991.947754 4179.210449,2958.000000 
M4106.996094,5373.846680 
	C4107.869141,5384.838379 4105.034180,5396.195801 4109.570801,5408.184570 
	C4118.117188,5408.184570 4126.027344,5408.184570 4133.937500,5408.184570 
	C4346.539551,5408.184082 4559.141113,5408.184082 4771.743164,5408.182129 
	C4777.074707,5408.182129 4782.420898,5408.401367 4787.733398,5408.078613 
	C4791.499512,5407.850098 4795.220215,5406.878418 4799.095703,5406.215332 
	C4799.519531,5402.553711 4800.078613,5399.962402 4800.081055,5397.371582 
	C4800.132324,5338.056641 4800.151367,5278.741211 4800.044922,5219.426270 
	C4800.039062,5216.361816 4798.858398,5213.299316 4798.031250,5209.300293 
	C4789.120117,5209.176270 4781.213867,5208.971191 4773.307129,5208.970215 
	C4560.705078,5208.952637 4348.103516,5208.956055 4135.501465,5208.956543 
	C4130.169922,5208.956543 4124.819824,5208.702637 4119.512695,5209.065918 
	C4115.746582,5209.323242 4112.039062,5210.420898 4108.849609,5211.038574 
	C4108.078613,5213.409180 4107.313965,5214.668457 4107.310547,5215.930176 
	C4107.162109,5267.245605 4107.083008,5318.560547 4106.996094,5373.846680 
M2478.000244,2020.838135 
	C2454.008057,2020.833618 2430.014893,2020.918213 2406.023926,2020.743530 
	C2401.620361,2020.711426 2397.223877,2019.626099 2391.509766,2018.847900 
	C2391.498291,1997.243530 2391.483398,1976.683960 2391.478027,1956.124268 
	C2391.472656,1935.463867 2391.148926,1914.796875 2391.569580,1894.145020 
	C2391.985596,1873.721191 2389.694824,1853.164551 2393.208984,1831.522827 
	C2401.883789,1831.317749 2409.744385,1830.970215 2417.605225,1830.969360 
	C2661.530762,1830.940552 2905.456055,1830.945923 3149.381592,1830.945190 
	C3155.379883,1830.945190 3161.391357,1831.177002 3167.371338,1830.843384 
	C3171.185547,1830.630493 3174.952881,1829.574097 3178.992676,1828.850952 
	C3179.865723,1817.640137 3181.936768,1807.241577 3176.937744,1796.165649 
	C3168.596436,1796.165649 3160.662109,1796.165527 3152.727539,1796.165527 
	C2909.468506,1796.165527 2666.209229,1796.165771 2422.950195,1796.164917 
	C2416.952148,1796.164917 2410.950439,1796.276733 2404.957031,1796.106812 
	C2401.129150,1795.998291 2397.313477,1795.466309 2393.000244,1795.080322 
	C2392.403076,1791.473022 2391.626221,1788.956299 2391.622803,1786.438354 
	C2391.553711,1736.454590 2391.531738,1686.470459 2391.678955,1636.486938 
	C2391.687988,1633.409302 2393.177734,1630.335938 2394.280762,1626.100952 
	C2402.758057,1626.100952 2410.706299,1626.100952 2418.654541,1626.100952 
	C2599.932373,1626.100830 2781.210449,1626.100830 2962.488281,1626.100830 
	C3031.134033,1626.100830 3099.779785,1626.153076 3168.425293,1626.023193 
	C3175.612305,1626.009644 3183.085205,1627.608765 3191.620605,1623.104126 
	C3191.058838,1613.535889 3193.604980,1603.228394 3189.401123,1591.950806 
	C3181.054443,1591.822632 3173.153320,1591.595703 3165.252441,1591.595093 
	C2901.999512,1591.576660 2638.746338,1591.579712 2375.493408,1591.580566 
	C2370.828125,1591.580566 2366.150391,1591.381104 2361.501709,1591.662964 
	C2357.750977,1591.890625 2354.035889,1592.704956 2350.708252,1593.199097 
	C2348.158936,1612.440063 2346.808838,1979.868774 2348.917480,2044.159180 
	C2349.021973,2047.346680 2349.689453,2050.515869 2350.135498,2054.013184 
	C2358.048340,2056.768555 2365.384277,2055.792236 2372.551270,2055.793701 
	C2639.136475,2055.841797 2905.721924,2055.834229 3172.307129,2055.833496 
	C3175.639404,2055.833496 3178.992432,2056.054199 3182.298584,2055.757080 
	C3186.058838,2055.419189 3189.777100,2054.614502 3193.937500,2053.944580 
	C3194.794434,2042.436646 3196.966309,2032.076172 3191.784668,2020.838989 
	C2955.041992,2020.838989 2718.520996,2020.838989 2478.000244,2020.838135 
M2129.656738,1800.053101 
	C2129.342529,1792.745605 2128.765869,1785.438477 2128.755859,1778.130615 
	C2128.679199,1722.814819 2128.778809,1667.498901 2128.625488,1612.183472 
	C2128.607666,1605.775513 2130.502686,1598.883667 2125.481934,1592.374878 
	C2113.425781,1591.609741 2101.112793,1590.166382 2087.728760,1593.888306 
	C2087.728760,1745.190674 2087.722168,1895.714478 2087.786377,2046.238403 
	C2087.787354,2048.744141 2088.648926,2051.249268 2089.307373,2054.833740 
	C2102.196533,2056.161133 2114.435791,2056.571289 2127.006348,2054.506104 
	C2129.680908,2045.739136 2128.650391,2037.738892 2128.663574,2029.888672 
	C2128.758057,1973.906616 2128.621094,1917.923950 2128.833252,1861.942505 
	C2128.859863,1854.934082 2126.457275,1847.216919 2133.395264,1839.795532 
	C2145.655762,1839.795532 2158.959717,1839.372437 2172.223877,1839.915894 
	C2185.215820,1840.448242 2198.562256,1837.379517 2212.221680,1842.655151 
	C2212.221680,1850.423340 2212.221680,1857.705933 2212.221680,1864.988525 
	C2212.221680,1921.637207 2212.156738,1978.286133 2212.311279,2034.934448 
	C2212.328857,2041.360596 2210.398438,2048.247559 2215.348877,2054.937744 
	C2227.948486,2055.815674 2240.873535,2057.335205 2253.388672,2053.976074 
	C2255.317383,2038.455811 2256.643555,1633.790039 2254.956055,1601.072632 
	C2254.825684,1598.539185 2253.957031,1596.043701 2253.493408,1593.825928 
	C2235.859863,1590.659424 2228.507080,1590.780518 2212.965576,1594.587891 
	C2212.726562,1600.776489 2212.261719,1607.317993 2212.255127,1613.859863 
	C2212.197021,1670.508545 2212.283691,1727.157471 2212.134521,1783.805786 
	C2212.117432,1790.230713 2213.954590,1797.099365 2209.728516,1802.910889 
	C2192.701660,1805.093506 2148.623779,1805.126953 2129.656738,1800.053101 
M1908.858276,1826.000000 
	C1909.019287,1900.625732 1909.172852,1975.251465 1909.410400,2049.876953 
	C1909.414185,2051.044922 1910.454468,2052.209717 1911.015015,2053.374023 
	C1926.576538,2056.788330 1934.466309,2056.753418 1950.819458,2052.890869 
	C1951.030151,2046.095459 1951.445679,2038.898682 1951.447998,2031.701904 
	C1951.487549,1905.084717 1951.452515,1778.467529 1951.535767,1651.850342 
	C1951.540894,1644.014526 1950.290405,1635.960693 1953.615967,1627.480957 
	C1958.296875,1627.012329 1962.784790,1626.241455 1967.283081,1626.174194 
	C1979.942017,1625.984619 1992.609009,1626.246094 2005.264893,1625.970459 
	C2009.000977,1625.889038 2012.710938,1624.612915 2016.544922,1623.862427 
	C2017.803711,1612.943848 2018.513794,1603.144775 2015.915894,1592.918579 
	C2012.956543,1592.440308 2010.412109,1591.673096 2007.866577,1591.670044 
	C1956.553711,1591.608276 1905.240479,1591.598877 1853.927856,1591.729736 
	C1850.832886,1591.737671 1847.741089,1593.002197 1844.516357,1593.710815 
	C1843.470825,1604.464355 1842.613403,1614.256958 1845.373291,1625.203247 
	C1865.748901,1627.668823 1886.405151,1624.332031 1905.693359,1627.134277 
	C1907.057983,1629.810669 1908.155273,1630.961060 1908.160522,1632.116455 
	C1908.451416,1695.410767 1908.650757,1758.705322 1908.858276,1826.000000 
z"/>
<path fill="#FBA92A" opacity="1.000000" stroke="none" 
	d="
M1845.499268,3783.898438 
	C1845.769409,3236.678467 1846.037598,2691.438477 1846.384644,2146.198486 
	C1846.385376,2145.043457 1847.549316,2143.888672 1848.171021,2142.734375 
	C1848.675293,2142.348389 1849.138428,2141.884766 1849.692749,2141.596680 
	C1850.276489,2141.292969 1850.941406,2140.998291 1851.581543,2140.973145 
	C1856.899170,2140.763184 1862.219238,2140.470459 1867.538574,2140.472412 
	C2014.184204,2140.527588 2160.829834,2140.611816 2307.475586,2140.750000 
	C2308.713623,2140.751221 2309.951172,2141.554932 2312.737305,2142.520264 
	C2321.823975,2169.962891 2327.690186,2199.282715 2335.465576,2228.049316 
	C2343.282959,2256.970947 2350.162598,2286.144775 2357.537598,2315.186768 
	C2364.910889,2344.222168 2372.401611,2373.227539 2379.817627,2402.252197 
	C2387.235107,2431.282715 2394.640137,2460.316162 2402.020752,2489.356201 
	C2409.400146,2518.391602 2416.694580,2547.448486 2424.114502,2576.473389 
	C2431.534424,2605.499023 2439.147461,2634.475098 2446.522217,2663.511963 
	C2453.897461,2692.551758 2461.186768,2721.614502 2468.320801,2750.714355 
	C2475.454590,2779.812256 2482.320068,2808.975830 2489.358154,2838.097412 
	C2496.395752,2867.217529 2503.518555,2896.317139 2510.572266,2925.433594 
	C2517.626465,2954.552002 2524.673828,2983.672119 2531.665527,3012.805664 
	C2538.656738,3041.937012 2545.358643,3071.139648 2552.586914,3100.211914 
	C2559.741455,3128.988525 2565.587891,3158.120361 2575.024170,3189.475098 
	C2583.559814,3174.715820 2583.704346,3160.629639 2587.382324,3147.707275 
	C2591.204590,3134.278320 2593.729736,3120.482422 2596.914307,3106.868652 
	C2599.946533,3093.905029 2603.116699,3080.973389 2606.191650,3068.019775 
	C2609.420898,3054.416992 2612.639160,3040.811768 2615.807373,3027.194824 
	C2618.975830,3013.576904 2622.017090,2999.929443 2625.221924,2986.320068 
	C2628.426025,2972.712402 2631.815186,2959.147705 2635.029053,2945.542236 
	C2638.089844,2932.584229 2641.022705,2919.596191 2644.024170,2906.624023 
	C2647.176270,2893.001465 2650.301758,2879.372803 2653.515137,2865.764648 
	C2656.727783,2852.159424 2660.090820,2838.589355 2663.283447,2824.979736 
	C2666.476074,2811.367432 2669.502441,2797.716309 2672.670898,2784.098389 
	C2675.687988,2771.131104 2678.694824,2758.159668 2681.889160,2745.235352 
	C2685.243896,2731.661377 2688.764404,2718.127441 2692.307617,2704.600830 
	C2695.850830,2691.075195 2699.601807,2677.603516 2703.096191,2664.065430 
	C2706.590332,2650.527832 2709.805908,2636.918213 2713.280273,2623.375488 
	C2716.754883,2609.831543 2720.413086,2596.335205 2723.962646,2582.810547 
	C2727.342529,2569.932373 2730.713623,2557.051758 2734.038086,2544.158936 
	C2737.528564,2530.620361 2740.896240,2517.049561 2744.434326,2503.523438 
	C2747.973145,2489.994629 2751.742920,2476.525879 2755.251465,2462.989502 
	C2758.759033,2449.457031 2762.006348,2435.856934 2765.482910,2422.316406 
	C2768.794434,2409.417969 2772.267822,2396.561279 2775.646240,2383.679932 
	C2779.193359,2370.155273 2782.751465,2356.633057 2786.232178,2343.091309 
	C2789.712402,2329.551758 2793.044678,2315.974121 2796.548096,2302.440674 
	C2800.052246,2288.903564 2803.743408,2275.415039 2807.250000,2261.878418 
	C2810.588867,2248.987793 2813.735596,2236.047363 2817.075684,2223.156982 
	C2820.582520,2209.623535 2824.221191,2196.124023 2827.797852,2182.608643 
	C2831.347412,2169.195312 2834.892090,2155.780762 2837.868896,2144.522705 
	C2840.362793,2142.325439 2840.804688,2141.773193 2841.378906,2141.476074 
	C2841.953125,2141.178711 2842.659424,2141.002197 2843.308105,2141.001221 
	C2991.941895,2140.806152 3140.575439,2140.629395 3289.209229,2140.472656 
	C3291.865479,2140.469971 3294.539307,2140.578613 3297.171143,2140.907227 
	C3298.400146,2141.060303 3299.547607,2141.863525 3302.053223,2142.939209 
	C3302.425293,2146.018799 3303.120605,2149.806885 3303.285889,2153.617920 
	C3303.516357,2158.940918 3303.354492,2164.280762 3303.354492,2169.613525 
	C3303.354980,2715.544189 3303.356201,3261.474609 3303.338379,3807.405273 
	C3303.338135,3815.946045 3303.095215,3824.486816 3302.962158,3833.241455 
	C3294.872070,3836.942139 3287.475342,3835.651123 3280.368652,3835.657227 
	C3172.382324,3835.750977 3064.395996,3835.722656 2956.409668,3835.722656 
	C2947.109375,3835.722656 2937.808838,3835.722656 2927.284180,3835.722656 
	C2926.519531,3830.569336 2925.220215,3826.191406 2925.324951,3821.847168 
	C2926.513428,3772.549072 2927.890869,3723.255859 2929.270996,3673.962646 
	C2930.278076,3637.994629 2931.432617,3602.030518 2932.399170,3566.061279 
	C2934.046143,3504.771729 2935.498291,3443.477051 2937.228027,3382.189697 
	C2938.205322,3347.553955 2939.409424,3312.922363 2940.800049,3278.300537 
	C2943.447510,3212.392090 2946.177734,3146.486084 2949.117920,3080.590332 
	C2950.840088,3041.993164 2953.086426,3003.419434 2954.968018,2964.829102 
	C2955.306152,2957.889893 2955.016113,2950.920166 2953.844238,2943.745361 
	C2944.275146,2963.522949 2939.505127,2984.774902 2933.010498,3005.416504 
	C2926.416016,3026.376465 2920.344727,3047.501221 2914.083740,3068.565430 
	C2907.823242,3089.626953 2901.647949,3110.713623 2895.368164,3131.769287 
	C2889.088379,3152.826904 2882.724854,3173.859863 2876.399658,3194.904053 
	C2870.074707,3215.947998 2863.702393,3236.978271 2857.442139,3258.041504 
	C2851.182129,3279.104248 2845.068848,3300.210449 2838.828613,3321.279053 
	C2832.399414,3342.985107 2825.926270,3364.677979 2819.415283,3386.359375 
	C2813.094971,3407.405762 2806.651367,3428.415039 2800.356689,3449.468994 
	C2794.062988,3470.520752 2787.858154,3491.599365 2781.667236,3512.681396 
	C2775.475342,3533.765137 2769.398438,3554.882812 2763.180908,3575.959229 
	C2756.964111,3597.032959 2750.634766,3618.074219 2744.355225,3639.129639 
	C2738.074951,3660.187500 2731.743408,3681.230469 2725.529785,3702.307861 
	C2719.316406,3723.384033 2713.284180,3744.513672 2707.056885,3765.585938 
	C2700.850586,3786.585449 2694.500732,3807.542480 2688.812256,3826.522461 
	C2686.429199,3828.531250 2685.980469,3829.044189 2685.418457,3829.345703 
	C2684.843018,3829.655029 2684.165039,3829.883545 2683.516602,3829.928711 
	C2680.202393,3830.160645 2676.883301,3830.487549 2673.566162,3830.484619 
	C2605.577637,3830.423828 2537.588867,3830.329102 2469.600342,3830.181396 
	C2468.344238,3830.178711 2467.089600,3829.447266 2464.088135,3828.511230 
	C2448.335693,3780.928223 2435.054199,3731.500000 2420.287354,3682.538330 
	C2405.483154,3633.451660 2391.159424,3584.220215 2376.548096,3535.075195 
	C2361.936523,3485.930176 2347.285645,3436.797119 2332.548828,3387.689453 
	C2317.811768,3338.580078 2302.942139,3289.510498 2288.139404,3240.420898 
	C2273.337158,3191.332275 2258.699463,3142.193604 2243.706055,3093.163086 
	C2228.783447,3044.364502 2214.691406,2995.300049 2198.862305,2946.265869 
	C2193.527588,2948.695312 2194.966064,2952.317871 2195.079590,2955.013672 
	C2196.172852,2980.972656 2197.478516,3006.922607 2198.724365,3032.875000 
	C2198.852539,3035.538086 2199.006592,3038.199951 2199.120605,3040.863525 
	C2201.003662,3084.802734 2202.856934,3128.743164 2204.767334,3172.681152 
	C2207.516357,3235.912598 2210.439941,3299.137207 2213.023682,3362.375244 
	C2214.356689,3394.996338 2215.247070,3427.636963 2216.108643,3460.274902 
	C2217.831543,3525.562256 2219.345703,3590.855469 2221.046387,3656.143311 
	C2222.174561,3699.442383 2223.430176,3742.738770 2224.731445,3786.032959 
	C2225.071533,3797.348389 2225.914062,3808.647949 2226.284424,3819.962891 
	C2226.432129,3824.465088 2225.924561,3828.988770 2225.768311,3832.354980 
	C2224.171387,3833.876709 2223.753418,3834.456299 2223.187744,3834.762451 
	C2222.624512,3835.067139 2221.912598,3835.227051 2221.265137,3835.228027 
	C2100.626709,3835.402588 1979.988159,3835.562256 1859.349609,3835.684570 
	C1856.056763,3835.687988 1852.763428,3835.273926 1848.213623,3834.970459 
	C1842.678833,3818.771729 1846.791870,3802.102539 1845.499268,3783.898438 
z"/>
<path fill="#FBA929" opacity="1.000000" stroke="none" 
	d="
M5851.791992,4120.195312 
	C5849.238770,4064.999756 5846.694824,4011.756104 5844.295898,3958.505859 
	C5843.973145,3951.338867 5842.997559,3944.022461 5845.350586,3936.405029 
	C5848.392578,3935.826660 5850.893066,3934.936768 5853.393555,3934.935303 
	C5981.344238,3934.867676 6109.294922,3934.875732 6238.050293,3934.875732 
	C6238.967285,3939.536133 6240.085449,3943.255371 6240.349121,3947.034180 
	C6240.719238,3952.342285 6240.459961,3957.694336 6240.459961,3963.027588 
	C6240.460938,4695.013672 6240.460938,5427.000000 6240.460938,6158.986328 
	C6240.460938,6167.622070 6240.460938,6176.257812 6240.460938,6183.953613 
	C6234.689453,6190.144043 6228.319336,6188.197266 6222.597656,6188.217285 
	C6175.265625,6188.380371 6127.933105,6188.309570 6080.600586,6188.310059 
	C6027.268066,6188.310059 5973.936035,6188.327148 5920.603516,6188.288086 
	C5914.009766,6188.283203 5907.416016,6187.978027 5900.261719,6187.798340 
	C5898.491699,6182.784668 5896.713379,6178.553711 5895.490234,6174.167969 
	C5862.569824,6056.150391 5829.647461,5938.133789 5796.851074,5820.081543 
	C5761.916016,5694.333496 5727.499023,5568.439941 5692.131348,5442.813477 
	C5659.464355,5326.782227 5630.331055,5209.840332 5600.282715,5093.130371 
	C5598.675781,5086.889648 5596.790527,5080.720215 5595.046875,5074.560547 
	C5589.879883,5075.599609 5591.086426,5078.817383 5591.154785,5080.812500 
	C5592.225586,5112.112305 5593.482422,5143.405273 5594.701172,5174.700195 
	C5594.804688,5177.364258 5594.964844,5180.026367 5595.060547,5182.690918 
	C5596.923828,5234.640625 5598.645996,5286.596191 5600.675781,5338.539062 
	C5603.330078,5406.456543 5606.204102,5474.365234 5609.029297,5542.275879 
	C5610.137207,5568.904785 5611.422852,5595.525391 5612.533691,5622.154297 
	C5615.365234,5690.064453 5618.127441,5757.977051 5620.952637,5825.887695 
	C5622.143555,5854.515137 5623.459473,5883.137207 5624.651855,5911.764648 
	C5627.453613,5979.008789 5630.175293,6046.255859 5633.018555,6113.498535 
	C5633.834473,6132.800781 5634.999023,6152.088379 5635.905273,6171.387207 
	C5636.120117,6175.971191 5635.937500,6180.574219 5635.937500,6186.564941 
	C5630.078125,6187.203613 5625.026367,6188.213867 5619.971680,6188.231934 
	C5581.973145,6188.367676 5543.973633,6188.309570 5505.974609,6188.310059 
	C5425.309570,6188.310547 5344.644043,6188.324219 5263.979004,6188.287598 
	C5256.754883,6188.284180 5249.530762,6187.952637 5241.230469,6187.746582 
	C5240.593750,6183.097656 5239.812012,6179.343262 5239.626465,6175.559570 
	C5239.364746,6170.238770 5239.540527,6164.895996 5239.540039,6159.562988 
	C5239.539062,5427.576660 5239.537598,4695.590332 5239.553711,3963.604004 
	C5239.554199,3955.032471 5239.779297,3946.461182 5239.887207,3938.769531 
	C5246.040527,3933.173828 5252.305176,3934.870605 5258.040527,3934.846191 
	C5296.705566,3934.682617 5335.371582,3934.759277 5374.037598,3934.759033 
	C5434.703125,3934.758545 5495.368652,3934.758301 5556.034180,3934.758301 
	C5562.640625,3934.758301 5569.246582,3934.758789 5576.990234,3934.758789 
	C5579.353516,3941.702637 5581.746582,3947.760254 5583.490234,3953.999512 
	C5639.583008,4154.732422 5695.079590,4355.633789 5751.826660,4556.181152 
	C5794.619141,4707.414551 5833.977051,4859.525879 5872.141602,5011.966797 
	C5876.345703,5028.759766 5880.438477,5045.583008 5884.861816,5062.317871 
	C5886.141602,5067.161621 5887.076660,5072.342285 5891.653320,5079.238770 
	C5892.523926,5053.670898 5891.619141,5031.272461 5890.253906,5008.881348 
	C5889.970215,5004.228027 5889.284668,4999.594727 5889.114746,4994.939941 
	C5887.318848,4945.655762 5885.779785,4896.361816 5883.788086,4847.085938 
	C5881.796875,4797.822266 5879.369141,4748.576660 5877.135742,4699.322754 
	C5877.015137,4696.659180 5876.932617,4693.993652 5876.829102,4691.329102 
	C5874.958008,4643.382324 5873.212402,4595.430664 5871.185059,4547.490723 
	C5868.594727,4486.242188 5865.791992,4425.002930 5863.053711,4363.760254 
	C5860.434570,4305.183105 5857.809570,4246.604980 5855.126953,4188.030273 
	C5854.121094,4166.064941 5852.944336,4144.106934 5851.791992,4120.195312 
z"/>
<path fill="#FBA92A" opacity="1.000000" stroke="none" 
	d="
M5347.555664,1627.536377 
	C5342.145020,1670.945801 5336.920410,1712.572998 5331.631836,1754.192017 
	C5326.931641,1791.184937 5322.099121,1828.161133 5317.437988,1865.158936 
	C5312.859863,1901.500244 5308.467773,1937.864746 5303.913574,1974.208862 
	C5299.111328,2012.531250 5294.180176,2050.837402 5289.368164,2089.158447 
	C5284.887207,2124.841064 5280.516113,2160.537598 5276.044434,2196.221436 
	C5271.158203,2235.206543 5266.174316,2274.179688 5261.305664,2313.166992 
	C5256.767578,2349.511963 5252.397949,2385.877930 5247.820801,2422.218018 
	C5243.078125,2459.873291 5238.110840,2497.500488 5233.362793,2535.155029 
	C5230.113770,2560.922852 5227.143066,2586.725830 5223.920898,2612.497070 
	C5219.212891,2650.158691 5214.365723,2687.803223 5209.627441,2725.461426 
	C5206.385742,2751.229980 5203.265137,2777.014160 5200.027344,2802.783447 
	C5195.212891,2841.103027 5190.305176,2879.411133 5185.508301,2917.732666 
	C5180.958496,2954.075439 5176.544434,2990.434814 5171.990234,3026.776855 
	C5167.188477,3065.098145 5162.260254,3103.403809 5157.445801,3141.723145 
	C5152.961914,3177.404297 5148.578125,3213.097412 5144.106934,3248.780029 
	C5139.222168,3287.763184 5134.264160,3326.737061 5129.385742,3365.720947 
	C5124.918945,3401.404785 5120.550293,3437.101074 5116.075684,3472.783691 
	C5111.187012,3511.766113 5106.191406,3550.735352 5101.306152,3589.718018 
	C5096.833984,3625.401611 5092.472656,3661.099365 5088.010742,3696.784424 
	C5082.475586,3741.057129 5076.897949,3785.324951 5071.272461,3829.586426 
	C5071.116211,3830.813965 5070.213379,3831.946289 5069.285645,3833.916016 
	C5062.939453,3837.134521 5055.488770,3835.644043 5048.351562,3835.649414 
	C4917.020020,3835.751465 4785.688965,3835.724121 4654.357422,3835.724121 
	C4621.024414,3835.724121 4587.691895,3835.770996 4554.358887,3835.683594 
	C4547.839355,3835.666504 4541.320801,3835.128174 4533.981445,3834.792969 
	C4532.208008,3823.343506 4530.333008,3812.977783 4529.031738,3802.540527 
	C4523.179199,3755.618896 4517.596680,3708.663818 4511.711914,3661.746582 
	C4505.744629,3614.172607 4499.448242,3566.639893 4493.462891,3519.068115 
	C4488.807129,3482.065186 4484.491699,3445.019043 4479.872559,3408.011475 
	C4475.253906,3371.007080 4470.396484,3334.032959 4465.735352,3297.033936 
	C4461.157227,3260.693115 4456.726562,3224.333496 4452.169922,3187.989990 
	C4447.365234,3149.667725 4442.450195,3111.358887 4437.651367,3073.035889 
	C4433.100586,3036.692383 4428.678711,3000.332520 4424.126465,2963.989258 
	C4419.326172,2925.668701 4414.399414,2887.363770 4409.598633,2849.043213 
	C4405.045410,2812.699951 4400.629395,2776.339844 4396.067871,2739.997803 
	C4391.258789,2701.677002 4386.309570,2663.374268 4381.493652,2625.054443 
	C4377.009277,2589.374756 4372.649902,2553.678955 4368.180664,2517.997070 
	C4363.298828,2479.016113 4358.325684,2440.046387 4353.446777,2401.065186 
	C4348.980957,2365.382812 4344.625000,2329.687256 4340.151855,2294.005859 
	C4335.265625,2255.024658 4330.250000,2216.059326 4325.381348,2177.075928 
	C4320.841797,2140.729004 4316.498047,2104.357910 4311.929688,2068.014893 
	C4307.195312,2030.354492 4302.220215,1992.724609 4297.490234,1955.063843 
	C4292.925781,1918.720703 4288.600098,1882.347778 4284.061035,1846.001465 
	C4279.356445,1808.336304 4274.484375,1770.692017 4269.753418,1733.030151 
	C4265.187988,1696.687866 4260.723633,1660.332642 4256.178223,1623.987793 
	C4255.269531,1616.721313 4253.945801,1609.498535 4253.270508,1602.213257 
	C4252.673340,1595.767822 4250.370605,1589.174438 4253.662109,1582.887695 
	C4272.045898,1579.708496 4535.452148,1578.409546 4669.450684,1580.859619 
	C4673.974121,1580.942383 4678.484375,1581.760010 4683.663086,1582.304810 
	C4684.817871,1592.259399 4686.330566,1601.447266 4686.875488,1610.692139 
	C4688.835449,1643.950195 4690.303223,1677.237183 4692.270996,1710.494751 
	C4694.278320,1744.407715 4696.704590,1778.295776 4698.855469,1812.200562 
	C4700.289062,1834.807739 4701.647949,1857.420654 4702.887207,1880.039429 
	C4704.747070,1913.972412 4706.306641,1947.922729 4708.303223,1981.847412 
	C4710.221680,2014.432129 4712.588379,2046.990356 4714.654785,2079.566895 
	C4716.172852,2103.504150 4717.605469,2127.447754 4718.928223,2151.396973 
	C4720.765137,2184.663574 4722.303223,2217.947266 4724.267578,2251.206055 
	C4726.270508,2285.120361 4728.684082,2319.010010 4730.823242,2352.916748 
	C4732.291504,2376.188721 4733.676758,2399.466553 4734.957520,2422.749756 
	C4736.788086,2456.016113 4738.325684,2489.299072 4740.291504,2522.556885 
	C4742.216797,2555.142090 4744.580566,2587.701416 4746.639648,2620.279053 
	C4748.195312,2644.882324 4749.675293,2669.491211 4751.012207,2694.107178 
	C4752.926758,2729.372559 4754.488281,2764.657471 4756.560547,2799.913086 
	C4758.398438,2831.166504 4760.799316,2862.386230 4762.814941,2893.629639 
	C4764.316406,2916.899658 4765.686523,2940.179443 4766.959473,2963.463135 
	C4768.813477,2997.395996 4770.260254,3031.353027 4772.387695,3065.268066 
	C4774.056641,3091.855713 4776.477051,3118.396729 4778.597168,3144.955566 
	C4780.028320,3162.885010 4781.616211,3180.802002 4782.964844,3198.737549 
	C4786.162109,3241.252930 4789.107422,3283.788330 4792.446777,3326.292480 
	C4794.999512,3358.791260 4797.999023,3391.254639 4800.781250,3423.520264 
	C4801.815430,3423.730469 4802.312500,3423.923096 4802.374023,3423.829102 
	C4802.738281,3423.276123 4803.206543,3422.677002 4803.267090,3422.056885 
	C4804.761230,3406.807861 4806.378418,3391.568604 4807.632324,3376.299316 
	C4811.503906,3329.164795 4815.263672,3282.021484 4819.005371,3234.876465 
	C4820.692383,3213.625488 4822.196289,3192.360107 4823.854980,3171.106934 
	C4826.083496,3142.549805 4828.385254,3113.998047 4830.643555,3085.443115 
	C4830.905762,3082.122070 4831.130371,3078.796631 4831.303223,3075.469727 
	C4833.142578,3040.200195 4834.722656,3004.915283 4836.855469,2969.663574 
	C4840.033203,2917.133057 4843.643066,2864.629150 4846.978516,2812.107910 
	C4848.498535,2788.171875 4849.887695,2764.226318 4851.183105,2740.276855 
	C4853.090820,2705.012695 4854.625488,2669.726807 4856.744629,2634.475830 
	C4859.981445,2580.614014 4863.620117,2526.776611 4867.012207,2472.924072 
	C4868.520020,2448.986572 4869.933594,2425.041992 4871.228516,2401.092041 
	C4873.135742,2365.827148 4874.663574,2330.540039 4876.776855,2295.287842 
	C4880.006836,2241.423096 4883.636230,2187.582520 4887.019043,2133.726562 
	C4888.564453,2109.122314 4890.009766,2084.510742 4891.347656,2059.894043 
	C4893.228027,2025.295166 4894.725586,1990.673950 4896.816895,1956.088135 
	C4900.034180,1902.893555 4903.660645,1849.723999 4907.025879,1796.538086 
	C4908.540527,1772.600708 4909.926758,1748.654541 4911.219727,1724.704102 
	C4913.124023,1689.438843 4914.775391,1654.159546 4916.781738,1618.900269 
	C4917.459473,1606.990112 4918.889160,1595.122681 4920.047852,1582.436279 
	C4925.386230,1581.829468 4929.866699,1580.877563 4934.348633,1580.874878 
	C5068.346680,1580.794556 5202.344238,1580.799927 5336.342285,1580.843994 
	C5340.887207,1580.845459 5345.432129,1581.388184 5350.538574,1581.714600 
	C5354.362793,1597.324219 5347.462402,1611.355225 5347.555664,1627.536377 
z"/>
<path fill="#FBA92A" opacity="1.000000" stroke="none" 
	d="
M1871.419556,6076.455078 
	C1844.063721,6035.118164 1829.080811,5990.490234 1820.259399,5943.624512 
	C1812.357544,5901.643066 1808.346802,5859.228516 1808.162598,5816.480957 
	C1808.108032,5803.815430 1807.998413,5791.149902 1807.998169,5778.484375 
	C1807.989746,5301.185547 1807.998047,4823.886719 1807.977783,4346.587891 
	C1807.976196,4309.258789 1808.062134,4271.948730 1812.229126,4234.772461 
	C1817.067993,4191.602051 1825.094727,4149.143555 1840.764648,4108.466309 
	C1871.255615,4029.314697 1926.669434,3975.024170 2005.442871,3944.177979 
	C2041.603638,3930.018066 2079.112793,3921.369385 2117.440918,3915.596191 
	C2157.076904,3909.626221 2196.925049,3907.812988 2236.931152,3906.792236 
	C2270.947754,3905.924561 2304.920166,3906.698486 2338.803955,3908.567627 
	C2392.786133,3911.545654 2446.164062,3919.150879 2497.789551,3936.179932 
	C2538.710693,3949.677979 2576.384766,3968.986084 2608.755615,3997.952148 
	C2650.301025,4035.127930 2675.911377,4081.963379 2691.454346,4134.701172 
	C2703.741455,4176.391602 2709.961426,4219.166504 2712.350586,4262.563477 
	C2717.412109,4354.493164 2713.998535,4446.492676 2714.938232,4538.454590 
	C2714.965088,4541.077148 2714.441162,4543.705078 2714.070801,4547.342773 
	C2710.505615,4548.465332 2706.939209,4549.762207 2703.276367,4550.669922 
	C2701.372070,4551.142090 2699.298584,4550.947266 2697.300293,4551.021484 
	C2650.018311,4552.781250 2602.728760,4554.356445 2555.456543,4556.346191 
	C2510.857422,4558.222656 2466.282715,4560.668945 2421.685547,4562.599121 
	C2398.378662,4563.607910 2375.043213,4563.950195 2351.727539,4564.785156 
	C2341.143311,4565.164062 2330.575684,4566.011719 2320.281250,4566.629883 
	C2314.346924,4559.450195 2316.786621,4551.799316 2316.769287,4544.818359 
	C2316.569580,4464.158203 2316.649658,4383.497070 2316.627686,4302.836426 
	C2316.625732,4295.505371 2317.033203,4288.102051 2316.162354,4280.863281 
	C2315.215576,4272.991211 2313.844482,4264.964844 2311.154297,4257.551758 
	C2305.799072,4242.795410 2295.118896,4233.190430 2279.584229,4229.761230 
	C2267.075684,4227.000000 2254.335449,4227.006836 2241.878174,4229.617188 
	C2220.328857,4234.133301 2209.510742,4249.305176 2204.770020,4269.582520 
	C2203.568848,4274.720703 2203.437744,4280.165527 2203.290283,4285.481934 
	C2203.013184,4295.475098 2203.016846,4305.477051 2203.016602,4315.475586 
	C2203.005615,4813.439941 2203.005371,5311.403809 2203.020752,5809.368164 
	C2203.020996,5819.365723 2202.834961,5829.388184 2203.471191,5839.352051 
	C2203.891357,5845.929199 2205.050537,5852.590820 2206.887451,5858.921875 
	C2212.162598,5877.099609 2224.255615,5888.327637 2242.754150,5892.772461 
	C2257.993408,5896.434082 2273.108643,5895.920410 2288.258301,5892.369629 
	C2303.010742,5888.912598 2313.364746,5879.986816 2318.845459,5866.163574 
	C2321.747070,5858.845703 2323.339844,5850.831543 2324.327637,5842.980957 
	C2325.320557,5835.090332 2324.964355,5827.012207 2324.967773,5819.016602 
	C2325.003662,5739.022461 2324.991699,5659.027832 2324.992920,5579.033691 
	C2324.992920,5571.758789 2324.992676,5564.483887 2324.992676,5556.255859 
	C2329.577881,5555.237305 2333.276855,5553.590820 2336.905273,5553.734375 
	C2392.164307,5555.912598 2447.412842,5558.346680 2502.666016,5560.679199 
	C2569.240967,5563.488770 2635.818848,5566.225098 2702.390625,5569.109375 
	C2707.588623,5569.334961 2712.747314,5570.467285 2718.556641,5571.265137 
	C2719.103760,5575.957031 2719.942383,5579.796387 2719.941406,5583.635742 
	C2719.923340,5665.629395 2720.432373,5747.629883 2719.484863,5829.613770 
	C2718.914062,5878.993164 2712.987793,5927.935059 2700.134521,5975.826660 
	C2693.377930,6001.000977 2684.334229,6025.268066 2672.333252,6048.457520 
	C2647.399658,6096.635742 2611.014893,6133.565430 2563.710938,6159.890137 
	C2523.064941,6182.509277 2479.166504,6195.597656 2433.674805,6203.773438 
	C2389.656982,6211.683594 2345.243896,6215.898438 2300.512451,6216.069336 
	C2267.185547,6216.196289 2233.818604,6216.688965 2200.537598,6215.336914 
	C2151.901611,6213.361328 2103.593018,6207.880859 2056.259033,6195.831543 
	C2024.518066,6187.751465 1993.906860,6176.744141 1965.061157,6160.968262 
	C1927.545166,6140.450684 1896.350342,6113.018555 1871.419556,6076.455078 
z"/>
<path fill="#FBA92A" opacity="1.000000" stroke="none" 
	d="
M5892.000000,3835.721191 
	C5751.450684,3835.721191 5612.901367,3835.721191 5473.291016,3835.721191 
	C5472.316895,3830.965576 5471.168945,3827.316162 5470.903809,3823.603760 
	C5470.524414,3818.298340 5470.782227,3812.946289 5470.782227,3807.614258 
	C5470.780762,3075.109375 5470.780762,2342.604248 5470.780762,1610.099365 
	C5470.780762,1601.501099 5470.780762,1592.902954 5470.780762,1583.476440 
	C5475.651367,1582.420654 5479.296875,1581.206055 5483.012207,1580.926392 
	C5488.314941,1580.527100 5493.669434,1580.806763 5499.001465,1580.806641 
	C5746.280273,1580.805664 5993.559082,1580.805786 6240.837891,1580.805786 
	C6248.742676,1580.805786 6256.647461,1580.805908 6264.356934,1580.805908 
	C6269.387695,1588.700806 6267.601562,1596.205566 6267.614746,1603.251221 
	C6267.756836,1680.567261 6267.703613,1757.883667 6267.703613,1835.199951 
	C6267.703613,1849.863403 6267.781738,1864.527466 6267.653320,1879.189819 
	C6267.613281,1883.712524 6267.007324,1888.230225 6266.639160,1893.024902 
	C6258.945801,1896.464966 6251.534180,1895.120117 6244.397949,1895.125977 
	C6127.090332,1895.222168 6009.783203,1895.194214 5892.475586,1895.194214 
	C5885.223633,1895.194214 5877.971680,1895.194214 5869.876953,1895.194214 
	C5869.024902,1900.147827 5868.078125,1903.882446 5867.808105,1907.665283 
	C5867.477539,1912.307983 5867.704590,1916.990967 5867.704590,1921.656616 
	C5867.703125,2110.948242 5867.698242,2300.239746 5867.723145,2489.531250 
	C5867.724121,2497.403320 5868.007812,2505.275146 5868.160156,2513.128418 
	C5876.232422,2517.140625 5883.675781,2515.593262 5890.787109,2515.601807 
	C5989.432129,2515.722656 6088.076660,2515.683838 6186.721680,2515.683838 
	C6194.000977,2515.683838 6201.280273,2515.683838 6207.944336,2515.683838 
	C6213.889648,2523.255615 6211.565430,2530.888428 6211.581543,2537.918457 
	C6211.771973,2619.899902 6211.703613,2701.882080 6211.703613,2783.864014 
	C6211.703613,2793.861816 6211.764648,2803.860352 6211.666504,2813.857178 
	C6211.627930,2817.755859 6211.226074,2821.650879 6210.962891,2825.999023 
	C6203.588379,2829.832275 6196.162598,2828.395508 6189.087402,2828.406006 
	C6109.771484,2828.521729 6030.455566,2828.478760 5951.139648,2828.479004 
	C5930.477539,2828.479004 5909.815430,2828.479248 5889.153320,2828.479492 
	C5883.203125,2828.479492 5877.252930,2828.479492 5870.323242,2828.479492 
	C5869.340820,2832.949219 5868.111328,2836.586670 5867.828613,2840.296387 
	C5867.424316,2845.598389 5867.704590,2850.953125 5867.704590,2856.285156 
	C5867.703125,3069.571533 5867.704102,3282.857666 5867.704102,3496.144043 
	C5867.704102,3504.081299 5867.703613,3512.018555 5867.703613,3519.144775 
	C5875.729492,3524.658691 5883.296875,3522.651123 5890.410156,3522.658936 
	C6011.716797,3522.794922 6133.023438,3522.748291 6254.330078,3522.775879 
	C6262.223145,3522.777832 6270.116211,3523.055908 6277.780273,3523.201172 
	C6282.733887,3530.908447 6280.874512,3538.437256 6280.892578,3545.507812 
	C6281.056641,3611.492676 6280.989746,3677.478516 6280.989746,3743.463867 
	C6280.989746,3767.458496 6281.040527,3791.453613 6280.953613,3815.447754 
	C6280.932617,3821.339355 6280.463379,3827.229492 6280.208496,3832.925781 
	C6272.528320,3837.431152 6265.024902,3835.608887 6257.917969,3835.624512 
	C6185.267578,3835.782959 6112.616699,3835.721436 6039.966309,3835.721436 
	C5991.311035,3835.721436 5942.655273,3835.721436 5892.000000,3835.721191 
z"/>
<path fill="#FBA929" opacity="1.000000" stroke="none" 
	d="
M3648.000000,5875.522461 
	C3739.933350,5875.521973 3829.866455,5875.521973 3919.001465,5875.521973 
	C3925.177246,5882.254883 3923.072021,5889.229004 3923.087646,5895.591797 
	C3923.241943,5958.912598 3923.181885,6022.232910 3923.182129,6085.553711 
	C3923.182129,6112.214844 3923.223145,6138.876465 3923.153564,6165.537598 
	C3923.136475,6172.104492 3922.760010,6178.670898 3922.509521,6186.453613 
	C3918.127686,6187.134277 3914.416992,6187.986328 3910.667236,6188.223633 
	C3906.019775,6188.518066 3901.340332,6188.309082 3896.674561,6188.309570 
	C3649.391113,6188.310547 3402.107666,6188.311035 3154.824219,6188.311035 
	C3146.908447,6188.311035 3138.992676,6188.310547 3130.227295,6188.310547 
	C3129.402832,6183.281738 3128.467529,6179.540039 3128.246582,6175.756836 
	C3127.936523,6170.442383 3128.152588,6165.096680 3128.152588,6159.764648 
	C3128.152100,5427.245605 3128.152344,4694.726562 3128.152344,3962.207764 
	C3128.152344,3954.283691 3128.152100,3946.359619 3128.152100,3937.413818 
	C3132.776611,3936.400146 3136.412109,3935.390869 3140.115967,3934.862549 
	C3142.730713,3934.489746 3145.438477,3934.760986 3148.104492,3934.760986 
	C3267.413818,3934.759521 3386.722900,3934.749756 3506.032227,3934.793457 
	C3511.288818,3934.795166 3516.545410,3935.285889 3522.754395,3935.596680 
	C3523.541504,3939.739258 3524.675537,3943.455566 3524.868652,3947.220215 
	C3525.210205,3953.868408 3524.985352,3960.545898 3524.985352,3967.211182 
	C3524.986572,4593.751465 3524.981445,5220.291992 3525.034668,5846.832031 
	C3525.035400,5855.373535 3523.931885,5864.060547 3526.801270,5873.818848 
	C3531.901855,5874.388672 3536.958984,5875.422363 3542.020508,5875.443848 
	C3576.679932,5875.588867 3611.340088,5875.521484 3648.000000,5875.522461 
z"/>
<path fill="#FBA92A" opacity="1.000000" stroke="none" 
	d="
M3835.970215,1556.125488 
	C3880.045898,1555.910400 3921.854492,1558.960693 3963.025635,1568.002441 
	C3976.644531,1570.993164 3990.141846,1574.897705 4003.323242,1579.458008 
	C4066.067383,1601.165894 4105.703125,1644.673584 4123.230469,1708.440552 
	C4130.849121,1736.157349 4134.815430,1764.508911 4135.885742,1793.224487 
	C4136.381836,1806.542725 4136.439941,1819.882690 4136.442383,1833.212891 
	C4136.475098,2026.526245 4136.468262,2219.839600 4136.460449,2413.153076 
	C4136.459473,2441.147217 4136.234863,2469.109619 4132.016113,2496.907227 
	C4128.302734,2521.371826 4122.750977,2545.292969 4113.122070,2568.146729 
	C4096.115723,2608.512939 4067.867432,2638.279297 4028.668457,2657.813721 
	C4002.164307,2671.022217 3973.961914,2678.727539 3944.971436,2683.632568 
	C3890.147461,2692.908691 3834.823975,2693.597656 3779.524902,2690.759766 
	C3744.966309,2688.986328 3710.494141,2685.036377 3676.888672,2675.861084 
	C3656.243896,2670.224854 3636.354248,2662.762695 3617.591553,2652.372070 
	C3572.991943,2627.672852 3546.493164,2589.051758 3532.544678,2541.071777 
	C3525.085205,2515.413330 3520.958252,2489.083008 3519.896240,2462.352783 
	C3519.340576,2448.369385 3519.048584,2434.365967 3519.044678,2420.371582 
	C3518.992432,2223.058594 3518.991211,2025.745605 3519.033203,1828.432617 
	C3519.039062,1801.774902 3519.504883,1775.165405 3523.830811,1748.714966 
	C3527.940186,1723.587891 3534.166748,1699.130493 3544.974854,1676.065552 
	C3561.304199,1641.217407 3586.301514,1614.312012 3620.107422,1595.630493 
	C3650.249756,1578.973389 3682.791016,1569.720337 3716.494385,1564.175415 
	C3755.382568,1557.777588 3794.586182,1555.419678 3835.970215,1556.125488 
M3868.018311,2218.000000 
	C3868.018311,2158.047119 3868.019287,2098.094482 3868.017822,2038.141602 
	C3868.016113,1971.527344 3868.083984,1904.912842 3867.907471,1838.299072 
	C3867.888184,1831.064331 3867.222656,1823.639526 3865.464600,1816.652954 
	C3863.556152,1809.067505 3858.185303,1803.573608 3849.833252,1803.412109 
	C3835.875977,1803.142090 3821.844482,1802.865112 3807.958496,1803.994141 
	C3797.216309,1804.867432 3789.873779,1812.906494 3788.284668,1823.576538 
	C3787.407959,1829.462769 3787.555420,1835.529175 3787.554443,1841.514282 
	C3787.522705,2030.032593 3787.527344,2218.550781 3787.546875,2407.069092 
	C3787.547363,2412.394775 3787.376465,2417.765381 3787.970947,2423.037598 
	C3789.497803,2436.575684 3796.332031,2443.854980 3809.660156,2444.684082 
	C3822.261719,2445.468018 3834.950684,2445.043945 3847.596924,2444.858887 
	C3857.654541,2444.711670 3863.944824,2438.900146 3866.063477,2429.613525 
	C3867.668457,2422.578125 3867.918945,2415.123535 3867.935059,2407.853516 
	C3868.071533,2345.902832 3868.016113,2283.951172 3868.018311,2218.000000 
z"/>
<path fill="#FBA92A" opacity="1.000000" stroke="none" 
	d="
M4687.839844,3980.059082 
	C4733.337891,4017.414062 4756.306641,4066.032227 4767.453613,4121.019043 
	C4773.019531,4148.475586 4775.404785,4176.354004 4775.398438,4204.436035 
	C4775.336914,4475.749023 4775.373047,4747.061523 4775.290039,5018.374512 
	C4775.288086,5025.526855 4776.635254,5032.926758 4773.463867,5040.395020 
	C4770.793457,5041.075195 4768.286621,5042.265137 4765.778320,5042.270508 
	C4715.179688,5042.379395 4664.580566,5042.352051 4613.194824,5042.352051 
	C4600.363770,5021.612793 4587.807617,5001.317383 4574.360352,4979.582031 
	C4569.452637,4984.439941 4565.213867,4988.315918 4561.335938,4992.524414 
	C4530.412598,5026.090332 4492.094727,5046.329102 4447.533203,5054.565430 
	C4415.914551,5060.409180 4383.842285,5060.896973 4351.905273,5057.987305 
	C4334.735840,5056.422852 4317.450684,5053.730957 4300.794434,5049.352539 
	C4229.683594,5030.660645 4182.777344,4984.831055 4156.274414,4917.214355 
	C4145.286621,4889.181152 4139.074707,4859.961914 4135.358398,4830.034668 
	C4132.470215,4806.783203 4131.822754,4783.549316 4131.868652,4760.223633 
	C4131.930176,4728.893555 4131.348145,4697.538086 4132.419922,4666.240234 
	C4133.768555,4626.864258 4138.562988,4587.862305 4151.929199,4550.451660 
	C4155.281738,4541.067871 4159.079102,4531.757812 4163.618164,4522.898438 
	C4180.739258,4489.480957 4206.617676,4465.895020 4242.195801,4452.838867 
	C4307.223633,4428.975098 4372.074707,4404.629883 4437.000488,4380.488281 
	C4460.093750,4371.901855 4483.190430,4363.322754 4507.063965,4354.451172 
	C4507.650879,4349.864746 4508.713379,4345.370605 4508.726074,4340.874023 
	C4508.847656,4298.210449 4508.410645,4255.542969 4508.922852,4212.885254 
	C4509.242676,4186.263184 4498.605469,4169.079590 4464.974609,4168.892090 
	C4458.310547,4168.854980 4451.598633,4168.531738 4444.990723,4169.177734 
	C4434.062500,4170.246582 4425.987305,4175.756348 4423.448242,4186.892090 
	C4421.687012,4194.611328 4420.320801,4202.589355 4420.175781,4210.477539 
	C4419.745605,4233.801270 4420.061523,4257.138184 4419.963379,4280.469727 
	C4419.938965,4286.334961 4419.454102,4292.198730 4419.246094,4296.651855 
	C4417.594727,4298.449219 4417.221680,4299.073730 4416.670898,4299.393555 
	C4416.121582,4299.712891 4415.400391,4299.823242 4414.745117,4299.861328 
	C4410.763672,4300.094238 4406.779785,4300.458496 4402.796387,4300.455566 
	C4320.141113,4300.391602 4237.486328,4300.289551 4154.831055,4300.132812 
	C4153.592773,4300.130371 4152.355957,4299.354980 4149.982422,4298.559570 
	C4149.477539,4295.309082 4148.385254,4291.532715 4148.383301,4287.755371 
	C4148.361328,4251.092773 4147.769531,4214.407227 4148.852539,4177.773438 
	C4149.836914,4144.464355 4154.063965,4111.485352 4163.260742,4079.192871 
	C4180.955566,4017.057129 4219.928711,3974.860107 4280.004883,3951.629639 
	C4311.940918,3939.280518 4345.216797,3932.724365 4378.979492,3928.573975 
	C4428.058594,3922.540283 4477.408203,3922.197998 4526.712891,3924.313721 
	C4559.446777,3925.718506 4591.443848,3932.076172 4622.324707,3943.496338 
	C4645.632324,3952.115723 4667.327148,3963.545654 4687.839844,3980.059082 
M4481.875000,4809.856445 
	C4483.115234,4809.378418 4484.372070,4808.938965 4485.593262,4808.416504 
	C4504.002930,4800.544434 4512.702637,4787.634277 4512.350586,4766.585449 
	C4511.395020,4709.450195 4512.051270,4652.288086 4511.980469,4595.136719 
	C4511.973633,4589.420410 4511.364746,4583.705566 4511.044434,4578.144531 
	C4508.462402,4578.020508 4507.005371,4577.523926 4505.925293,4577.960449 
	C4476.380859,4589.909668 4446.880859,4601.968750 4417.358398,4613.973145 
	C4409.354004,4617.228027 4404.231934,4623.148438 4402.421387,4631.404297 
	C4401.011719,4637.832031 4400.021973,4644.495605 4399.996094,4651.058594 
	C4399.856445,4686.942871 4400.067383,4722.828125 4400.177734,4758.713379 
	C4400.186035,4761.369141 4400.208496,4764.039551 4400.466309,4766.679199 
	C4403.173340,4794.312500 4419.240234,4810.298340 4446.928223,4811.869629 
	C4457.473145,4812.467285 4468.118652,4811.292480 4481.875000,4809.856445 
z"/>
<path fill="#FBAA2C" opacity="1.000000" stroke="none" 
	d="
M4179.209961,2960.000000 
	C4179.208984,2991.947754 4179.208984,3021.895752 4179.208984,3052.778076 
	C4174.852051,3053.812500 4171.230469,3055.091553 4167.520996,3055.446289 
	C4162.899414,3055.887939 4158.205078,3055.573730 4153.542480,3055.573730 
	C3939.057373,3055.574951 3724.572510,3055.574707 3510.087402,3055.574707 
	C3502.792969,3055.574707 3495.498291,3055.574707 3487.478516,3055.574707 
	C3486.400146,3051.768799 3484.802979,3048.749268 3484.797119,3045.726318 
	C3484.677490,2985.112305 3484.736572,2924.497803 3484.801025,2863.883545 
	C3484.802246,2862.579102 3485.292969,2861.275146 3485.802246,2858.746094 
	C3488.965088,2858.003174 3492.590576,2856.736572 3496.302246,2856.385254 
	C3500.924316,2855.947754 3505.617920,2856.258301 3510.280518,2856.258301 
	C3724.765625,2856.257080 3939.250732,2856.244141 4153.735840,2856.307861 
	C4161.541016,2856.310303 4169.534668,2855.229736 4176.471191,2857.497070 
	C4177.598145,2859.805664 4178.646973,2860.957764 4178.656250,2862.118164 
	C4178.905762,2894.078125 4179.049316,2926.039307 4179.209961,2960.000000 
z"/>
<path fill="#FBAA2B" opacity="1.000000" stroke="none" 
	d="
M4106.995605,5371.861328 
	C4107.083008,5318.560547 4107.162109,5267.245605 4107.310547,5215.930176 
	C4107.313965,5214.668457 4108.078613,5213.409180 4108.849609,5211.038574 
	C4112.039062,5210.420898 4115.746582,5209.323242 4119.512695,5209.065918 
	C4124.819824,5208.702637 4130.169922,5208.956543 4135.501465,5208.956543 
	C4348.103516,5208.956055 4560.705078,5208.952637 4773.307129,5208.970215 
	C4781.213867,5208.971191 4789.120117,5209.176270 4798.031250,5209.300293 
	C4798.858398,5213.299316 4800.039062,5216.361816 4800.044922,5219.426270 
	C4800.151367,5278.741211 4800.132324,5338.056641 4800.081055,5397.371582 
	C4800.078613,5399.962402 4799.519531,5402.553711 4799.095703,5406.215332 
	C4795.220215,5406.878418 4791.499512,5407.850098 4787.733398,5408.078613 
	C4782.420898,5408.401367 4777.074707,5408.182129 4771.743164,5408.182129 
	C4559.141113,5408.184082 4346.539551,5408.184082 4133.937500,5408.184570 
	C4126.027344,5408.184570 4118.117188,5408.184570 4109.570801,5408.184570 
	C4105.034180,5396.195801 4107.869141,5384.838379 4106.995605,5371.861328 
z"/>
<path fill="#FBAD34" opacity="1.000000" stroke="none" 
	d="
M2480.000000,2020.838623 
	C2718.520996,2020.838989 2955.041992,2020.838989 3191.784668,2020.838989 
	C3196.966309,2032.076172 3194.794434,2042.436646 3193.937500,2053.944580 
	C3189.777100,2054.614502 3186.058838,2055.419189 3182.298584,2055.757080 
	C3178.992432,2056.054199 3175.639404,2055.833496 3172.307129,2055.833496 
	C2905.721924,2055.834229 2639.136475,2055.841797 2372.551270,2055.793701 
	C2365.384277,2055.792236 2358.048340,2056.768555 2350.135498,2054.013184 
	C2349.689453,2050.515869 2349.021973,2047.346680 2348.917480,2044.159180 
	C2346.808838,1979.868774 2348.158936,1612.440063 2350.708252,1593.199097 
	C2354.035889,1592.704956 2357.750977,1591.890625 2361.501709,1591.662964 
	C2366.150391,1591.381104 2370.828125,1591.580566 2375.493408,1591.580566 
	C2638.746338,1591.579712 2901.999512,1591.576660 3165.252441,1591.595093 
	C3173.153320,1591.595703 3181.054443,1591.822632 3189.401123,1591.950806 
	C3193.604980,1603.228394 3191.058838,1613.535889 3191.620605,1623.104126 
	C3183.085205,1627.608765 3175.612305,1626.009644 3168.425293,1626.023193 
	C3099.779785,1626.153076 3031.134033,1626.100830 2962.488281,1626.100830 
	C2781.210449,1626.100830 2599.932373,1626.100830 2418.654541,1626.100952 
	C2410.706299,1626.100952 2402.758057,1626.100952 2394.280762,1626.100952 
	C2393.177734,1630.335938 2391.687988,1633.409302 2391.678955,1636.486938 
	C2391.531738,1686.470459 2391.553711,1736.454590 2391.622803,1786.438354 
	C2391.626221,1788.956299 2392.403076,1791.473022 2393.000244,1795.080322 
	C2397.313477,1795.466309 2401.129150,1795.998291 2404.957031,1796.106812 
	C2410.950439,1796.276733 2416.952148,1796.164917 2422.950195,1796.164917 
	C2666.209229,1796.165771 2909.468506,1796.165527 3152.727539,1796.165527 
	C3160.662109,1796.165527 3168.596436,1796.165649 3176.937744,1796.165649 
	C3181.936768,1807.241577 3179.865723,1817.640137 3178.992676,1828.850952 
	C3174.952881,1829.574097 3171.185547,1830.630493 3167.371338,1830.843384 
	C3161.391357,1831.177002 3155.379883,1830.945190 3149.381592,1830.945190 
	C2905.456055,1830.945923 2661.530762,1830.940552 2417.605225,1830.969360 
	C2409.744385,1830.970215 2401.883789,1831.317749 2393.208984,1831.522827 
	C2389.694824,1853.164551 2391.985596,1873.721191 2391.569580,1894.145020 
	C2391.148926,1914.796875 2391.472656,1935.463867 2391.478027,1956.124268 
	C2391.483398,1976.683960 2391.498291,1997.243530 2391.509766,2018.847900 
	C2397.223877,2019.626099 2401.620361,2020.711426 2406.023926,2020.743530 
	C2430.014893,2020.918213 2454.008057,2020.833618 2480.000000,2020.838623 
z"/>
<path fill="#FBAC30" opacity="1.000000" stroke="none" 
	d="
M2130.821289,1801.531738 
	C2148.623779,1805.126953 2192.701660,1805.093506 2209.728516,1802.910889 
	C2213.954590,1797.099365 2212.117432,1790.230713 2212.134521,1783.805786 
	C2212.283691,1727.157471 2212.197021,1670.508545 2212.255127,1613.859863 
	C2212.261719,1607.317993 2212.726562,1600.776489 2212.965576,1594.587891 
	C2228.507080,1590.780518 2235.859863,1590.659424 2253.493408,1593.825928 
	C2253.957031,1596.043701 2254.825684,1598.539185 2254.956055,1601.072632 
	C2256.643555,1633.790039 2255.317383,2038.455811 2253.388672,2053.976074 
	C2240.873535,2057.335205 2227.948486,2055.815674 2215.348877,2054.937744 
	C2210.398438,2048.247559 2212.328857,2041.360596 2212.311279,2034.934448 
	C2212.156738,1978.286133 2212.221680,1921.637207 2212.221680,1864.988525 
	C2212.221680,1857.705933 2212.221680,1850.423340 2212.221680,1842.655151 
	C2198.562256,1837.379517 2185.215820,1840.448242 2172.223877,1839.915894 
	C2158.959717,1839.372437 2145.655762,1839.795532 2133.395264,1839.795532 
	C2126.457275,1847.216919 2128.859863,1854.934082 2128.833252,1861.942505 
	C2128.621094,1917.923950 2128.758057,1973.906616 2128.663574,2029.888672 
	C2128.650391,2037.738892 2129.680908,2045.739136 2127.006348,2054.506104 
	C2114.435791,2056.571289 2102.196533,2056.161133 2089.307373,2054.833740 
	C2088.648926,2051.249268 2087.787354,2048.744141 2087.786377,2046.238403 
	C2087.722168,1895.714478 2087.728760,1745.190674 2087.728760,1593.888306 
	C2101.112793,1590.166382 2113.425781,1591.609741 2125.481934,1592.374878 
	C2130.502686,1598.883667 2128.607666,1605.775513 2128.625488,1612.183472 
	C2128.778809,1667.498901 2128.679199,1722.814819 2128.755859,1778.130615 
	C2128.765869,1785.438477 2129.342529,1792.745605 2130.821289,1801.531738 
z"/>
<path fill="#FBAD34" opacity="1.000000" stroke="none" 
	d="
M1908.858765,1824.000000 
	C1908.650757,1758.705322 1908.451416,1695.410767 1908.160522,1632.116455 
	C1908.155273,1630.961060 1907.057983,1629.810669 1905.693359,1627.134277 
	C1886.405151,1624.332031 1865.748901,1627.668823 1845.373291,1625.203247 
	C1842.613403,1614.256958 1843.470825,1604.464355 1844.516357,1593.710815 
	C1847.741089,1593.002197 1850.832886,1591.737671 1853.927856,1591.729736 
	C1905.240479,1591.598877 1956.553711,1591.608276 2007.866577,1591.670044 
	C2010.412109,1591.673096 2012.956543,1592.440308 2015.915894,1592.918579 
	C2018.513794,1603.144775 2017.803711,1612.943848 2016.544922,1623.862427 
	C2012.710938,1624.612915 2009.000977,1625.889038 2005.264893,1625.970459 
	C1992.609009,1626.246094 1979.942017,1625.984619 1967.283081,1626.174194 
	C1962.784790,1626.241455 1958.296875,1627.012329 1953.615967,1627.480957 
	C1950.290405,1635.960693 1951.540894,1644.014526 1951.535767,1651.850342 
	C1951.452515,1778.467529 1951.487549,1905.084717 1951.447998,2031.701904 
	C1951.445679,2038.898682 1951.030151,2046.095459 1950.819458,2052.890869 
	C1934.466309,2056.753418 1926.576538,2056.788330 1911.013184,2053.375000 
	C1910.454468,2052.209717 1909.414185,2051.044922 1909.410400,2049.876953 
	C1909.172852,1975.251465 1909.019287,1900.625732 1908.858765,1824.000000 
z"/>
<path fill="#FFFEFD" opacity="1.000000" stroke="none" 
	d="
M3868.018311,2220.000000 
	C3868.016113,2283.951172 3868.071533,2345.902832 3867.935059,2407.853516 
	C3867.918945,2415.123535 3867.668457,2422.578125 3866.063477,2429.613525 
	C3863.944824,2438.900146 3857.654541,2444.711670 3847.596924,2444.858887 
	C3834.950684,2445.043945 3822.261719,2445.468018 3809.660156,2444.684082 
	C3796.332031,2443.854980 3789.497803,2436.575684 3787.970947,2423.037598 
	C3787.376465,2417.765381 3787.547363,2412.394775 3787.546875,2407.069092 
	C3787.527344,2218.550781 3787.522705,2030.032593 3787.554443,1841.514282 
	C3787.555420,1835.529175 3787.407959,1829.462769 3788.284668,1823.576538 
	C3789.873779,1812.906494 3797.216309,1804.867432 3807.958496,1803.994141 
	C3821.844482,1802.865112 3835.875977,1803.142090 3849.833252,1803.412109 
	C3858.185303,1803.573608 3863.556152,1809.067505 3865.464600,1816.652954 
	C3867.222656,1823.639526 3867.888184,1831.064331 3867.907471,1838.299072 
	C3868.083984,1904.912842 3868.016113,1971.527344 3868.017822,2038.141602 
	C3868.019287,2098.094482 3868.018311,2158.047119 3868.018311,2220.000000 
z"/>
<path fill="#FFFEFC" opacity="1.000000" stroke="none" 
	d="
M4480.296875,4810.390625 
	C4468.118652,4811.292480 4457.473145,4812.467285 4446.928223,4811.869629 
	C4419.240234,4810.298340 4403.173340,4794.312500 4400.466309,4766.679199 
	C4400.208496,4764.039551 4400.186035,4761.369141 4400.177734,4758.713379 
	C4400.067383,4722.828125 4399.856445,4686.942871 4399.996094,4651.058594 
	C4400.021973,4644.495605 4401.011719,4637.832031 4402.421387,4631.404297 
	C4404.231934,4623.148438 4409.354004,4617.228027 4417.358398,4613.973145 
	C4446.880859,4601.968750 4476.380859,4589.909668 4505.925293,4577.960449 
	C4507.005371,4577.523926 4508.462402,4578.020508 4511.044434,4578.144531 
	C4511.364746,4583.705566 4511.973633,4589.420410 4511.980469,4595.136719 
	C4512.051270,4652.288086 4511.395020,4709.450195 4512.350586,4766.585449 
	C4512.702637,4787.634277 4504.002930,4800.544434 4485.593262,4808.416504 
	C4484.372070,4808.938965 4483.115234,4809.378418 4480.296875,4810.390625 
z"/>
</svg>